<?xml version="1.0" encoding="UTF-8"?>
<svg id="Layer_2" data-name="Layer 2" xmlns="http://www.w3.org/2000/svg" xmlns:xlink="http://www.w3.org/1999/xlink" viewBox="0 0 755.45 203.46">
  <defs>
    <style>
      .cls-1 {
        fill: url(#linear-gradient-2);
      }

      .cls-2 {
        fill: #fff;
      }

      .cls-3 {
        fill: url(#linear-gradient-3);
      }

      .cls-4 {
        fill: url(#linear-gradient);
      }

      .cls-5 {
        fill: url(#linear-gradient-4);
      }
    </style>
    <linearGradient id="linear-gradient" x1="112.6" y1="282.06" x2="117.93" y2="34.06" gradientUnits="userSpaceOnUse">
      <stop offset="0" stop-color="#d4145a"/>
      <stop offset="1" stop-color="#9767f9"/>
    </linearGradient>
    <linearGradient id="linear-gradient-2" x1="11.21" y1="279.88" x2="16.54" y2="31.88" xlink:href="#linear-gradient"/>
    <linearGradient id="linear-gradient-3" x1="63.31" y1="281" x2="68.64" y2="33" xlink:href="#linear-gradient"/>
    <linearGradient id="linear-gradient-4" x1="61.58" y1="280.96" x2="66.91" y2="32.96" xlink:href="#linear-gradient"/>
  </defs>
  <g id="Layer_1-2" data-name="Layer 1">
    <g>
      <g>
        <path class="cls-2" d="m278.83,28.08v133.42h-19.58v-5.61c-7.36,3.77-15.36,5.7-24,5.7-9.75,0-18.76-2.39-26.76-7.17-8.09-4.78-14.53-11.22-19.31-19.31-4.87-8.09-7.26-17.01-7.26-26.85s2.39-18.76,7.26-26.85c4.78-8.09,11.22-14.53,19.31-19.31,8-4.78,17.01-7.17,26.76-7.17,8.64,0,16.64,1.93,24,5.7V28.08h19.58Zm-19.58,56.55c-3.03-3.13-6.71-5.61-10.76-7.45-4.14-1.75-8.55-2.67-13.24-2.67-6.16,0-11.86,1.56-16.92,4.6-5.15,3.03-9.19,7.08-12.23,12.23-3.03,5.06-4.51,10.76-4.51,16.92s1.47,11.86,4.51,16.92c3.03,5.15,7.08,9.2,12.23,12.23,5.06,3.03,10.76,4.6,16.92,4.6,4.69,0,9.1-.92,13.24-2.67,4.05-1.84,7.72-4.32,10.76-7.45v-47.26Z"/>
        <path class="cls-2" d="m481.56,62.1c8.09,4.78,14.53,11.22,19.31,19.31,4.78,8.09,7.17,17.01,7.17,26.85s-2.39,18.76-7.17,26.85c-4.78,8.09-11.22,14.53-19.31,19.31-8.09,4.78-17.01,7.17-26.85,7.17-8.64,0-16.55-1.93-23.91-5.7v5.61h-19.68V28.08h19.68v32.55c7.36-3.77,15.26-5.7,23.91-5.7,9.84,0,18.76,2.39,26.85,7.17Zm-9.84,75.31c5.06-3.03,9.1-7.08,12.23-12.23,3.03-5.06,4.51-10.76,4.51-16.92s-1.47-11.86-4.51-16.92c-3.13-5.15-7.17-9.19-12.23-12.23-5.15-3.03-10.76-4.6-17.01-4.6-4.69,0-9.01.92-13.15,2.67-4.14,1.84-7.72,4.32-10.76,7.45v47.26c3.03,3.13,6.62,5.61,10.76,7.45,4.14,1.75,8.46,2.67,13.15,2.67,6.25,0,11.86-1.56,17.01-4.6Z"/>
        <path class="cls-2" d="m521.09,74.51h19.58v86.98h-19.58v-86.98Z"/>
        <path class="cls-2" d="m625.63,142v19.58c-28.78,0-44.96-6.16-44.96-25.84,0-18.39.09-61.33.09-61.33h-40.09v-19.58h40.09v-26.57h19.49v26.57h25.56v19.68h-25.56s.09,53.24.09,53.79c0,13.7,8.18,13.7,25.29,13.7Z"/>
      </g>
      <rect class="cls-4" x="102.51" width="28.41" height="180.78"/>
      <rect class="cls-1" y="100.32" width="28.41" height="80.46"/>
      <polygon class="cls-3" points="79.93 203.46 51.52 203.46 50.99 158.1 79.41 158.1 79.93 203.46"/>
      <polygon class="cls-5" points="79.93 123 51.52 123 50.99 77.64 79.41 77.64 79.93 123"/>
      <path class="cls-2" d="m740.1,102.92c-.28-4.05-.83-7.45-1.56-10.11-2.3-7.36-5.88-13.88-10.85-19.59-4.97-5.7-10.85-10.11-17.84-13.43-6.9-3.31-14.34-4.87-22.44-4.87-9.75,0-18.76,2.39-26.85,7.17-8,4.78-14.44,11.22-19.22,19.31-4.87,8.09-7.26,17.01-7.26,26.85s2.39,18.76,7.26,26.85c4.78,8,11.22,14.44,19.22,19.22,7.63,4.6,16.1,6.96,25.21,7.21v-.04h39.76v-19.62h-39.76c-7.87-.33-14.76-3.08-20.61-8.33-6.16-5.61-9.93-12.6-11.13-21.15h86.52c.09-2.3-.09-5.52-.46-9.47Zm-82.66-10.11c2.94-5.52,6.99-9.93,12.32-13.24,5.24-3.4,11.13-5.06,17.65-5.06s12.51,1.66,17.75,5.06c5.33,3.31,9.38,7.72,12.23,13.24h-59.95Z"/>
      <path class="cls-2" d="m397.79,102.92c-.28-4.05-.83-7.45-1.56-10.11-2.3-7.36-5.88-13.88-10.85-19.59-4.97-5.7-10.85-10.11-17.84-13.43-6.9-3.31-14.34-4.87-22.44-4.87-9.75,0-18.76,2.39-26.85,7.17-8,4.78-14.44,11.22-19.22,19.31-4.87,8.09-7.26,17.01-7.26,26.85s2.39,18.76,7.26,26.85c4.78,8,11.22,14.44,19.22,19.22,7.63,4.6,16.1,6.96,25.21,7.21v-.04h39.76v-19.62h-39.76c-7.87-.33-14.76-3.08-20.61-8.33-6.16-5.61-9.93-12.6-11.13-21.15h86.52c.09-2.3-.09-5.52-.46-9.47Zm-82.66-10.11c2.94-5.52,6.99-9.93,12.32-13.24,5.24-3.4,11.13-5.06,17.65-5.06s12.51,1.66,17.75,5.06c5.33,3.31,9.38,7.72,12.23,13.24h-59.95Z"/>
      <rect class="cls-2" x="735.95" y="142" width="19.49" height="19.49"/>
      <rect class="cls-2" x="521.13" y="35.43" width="19.49" height="19.49"/>
    </g>
  </g>
</svg>