<?xml version="1.0" encoding="UTF-8"?>
<svg id="Layer_2" data-name="Layer 2" xmlns="http://www.w3.org/2000/svg" xmlns:xlink="http://www.w3.org/1999/xlink" viewBox="0 0 3521.28 739.29">
  <defs>
    <style>
      .cls-1 {
        fill: url(#linear-gradient-2);
      }

      .cls-2 {
        fill: url(#linear-gradient-5);
      }

      .cls-3 {
        fill: url(#linear-gradient-3);
      }

      .cls-4 {
        fill: url(#linear-gradient);
      }

      .cls-5 {
        fill: url(#linear-gradient-4);
      }
    </style>
    <linearGradient id="linear-gradient" x1="939.2" y1="-135.99" x2="923.2" y2="376.01" gradientUnits="userSpaceOnUse">
      <stop offset="0" stop-color="#0075af"/>
      <stop offset="1" stop-color="#019dec"/>
    </linearGradient>
    <linearGradient id="linear-gradient-2" x1="3306.51" y1="-62.02" x2="3290.51" y2="449.98" xlink:href="#linear-gradient"/>
    <linearGradient id="linear-gradient-3" x1="2395.31" y1="-90.49" x2="2379.31" y2="421.51" xlink:href="#linear-gradient"/>
    <linearGradient id="linear-gradient-4" x1="2138.18" y1="-98.53" x2="2122.18" y2="413.47" xlink:href="#linear-gradient"/>
    <linearGradient id="linear-gradient-5" x1="1468.49" y1="-119.45" x2="1452.49" y2="392.55" xlink:href="#linear-gradient"/>
  </defs>
  <g id="Layer_1-2" data-name="Layer 1">
    <g>
      <path class="cls-4" d="m0,708.57c1.85-1.12,2.12-3.13,2.66-4.93,2.64-8.89,5.21-17.81,7.83-26.71,5.38-18.26,10.77-36.51,16.15-54.78,4.2-14.27,8.37-28.55,12.57-42.82,6.09-20.72,12.19-41.43,18.28-62.15,4.15-14.12,8.28-28.24,12.43-42.36,5.42-18.42,10.85-36.83,16.27-55.24,4.15-14.12,8.29-28.24,12.45-42.36,5.46-18.57,10.94-37.13,16.39-55.7,4.2-14.27,8.36-28.55,12.56-42.83,5.37-18.26,10.77-36.52,16.14-54.78,4.2-14.27,8.38-28.55,12.57-42.82,5.42-18.42,10.86-36.82,16.27-55.24,3.38-11.52,7.04-22.94,11.67-34.03,5.14-12.3,11.4-23.97,19.71-34.46,5.68-7.16,11.85-13.82,18.82-19.77,4.26-3.64,8.5-7.29,12.99-10.64,9.91-7.4,20.5-13.64,32.02-18.24,8.8-3.51,17.83-6.31,27.26-7.37,7.28-.82,14.61-2.06,21.97-.54,19,1,36.19,7.65,52.4,17.11,10.95,6.39,21.02,13.98,30.08,22.9,7.93,7.8,14.37,16.73,20.28,26.07,8.04,12.71,16.01,25.46,24.02,38.18,10.83,17.19,21.67,34.37,32.51,51.55,8.2,12.99,16.41,25.96,24.6,38.95,10.32,16.37,20.62,32.76,30.95,49.14,8.19,12.99,16.41,25.97,24.59,38.96,12.02,19.08,24.02,38.18,36.05,57.27,8.19,12.99,16.4,25.97,24.6,38.95,6.5,10.28,13.01,20.54,19.51,30.82.43.68.82,1.37,1.28,2.03,2.5,3.58,4.82,3.59,7.52.03.58-.76,1.09-1.58,1.61-2.39,7.21-11.15,14.42-22.3,21.61-33.47,6.92-10.76,13.78-21.57,20.72-32.32,14.4-22.32,28.83-44.61,43.24-66.92,8.94-13.84,17.84-27.71,26.77-41.56,16.04-24.87,32.08-49.74,48.12-74.62,9.36-14.52,18.72-29.04,28.08-43.57,11.78-18.29,23.57-36.58,35.34-54.88,4.77-7.41,9.83-14.62,15.6-21.27,10.78-12.42,22.87-23.26,38-30.26,4.67-2.16,9.51-3.81,14.44-5.19,10.03-2.8,20.19-4.91,30.63-5.53,3.99-.24,7.95-.8,11.96-.71,17.65.42,34.64,3.81,50.56,11.65,10.1,4.98,19.22,11.44,27.42,19.19,12.36,11.66,22.02,25.3,29.77,40.35q5.76,11.18,8.13,23.89c4.15,22,8.3,44.01,12.45,66.01,2.23,11.79,4.34,23.6,6.73,35.35,2.28,11.23,6.31,21.8,12.9,31.29,3.4,4.9,7.39,9.2,12.38,12.57,6.02,4.06,12.6,6.15,19.84,6.24,1.92.02,3.84,0,5.76,0,141.44,0,282.88.04,424.31-.08,10.65,0,21.05,1.18,31.37,3.55,23.94,5.5,47.04,13.4,69.28,23.87,19.77,9.3,38.39,20.46,55.89,33.48,8.08,6.01,15.85,12.45,23.05,19.52,8.45,8.29,16.74,16.71,24.19,25.96,10.65,13.24,18.72,27.84,24.25,43.87,4.39,12.74,7.42,25.8,9.26,39.16,1.72,12.53,2.88,25.09,2.88,37.75,0,3.99.68,7.98.58,11.97-.27,10.86-.59,21.72-1.56,32.56-.9,10.06-2.45,20-4.95,29.78-3.11,12.16-7.69,23.73-14.33,34.42-3.81,6.13-8.34,11.73-12.88,17.31-7.79,9.58-16.52,18.3-25.66,26.55-13.7,12.35-28.64,23.06-44.49,32.52-17.92,10.69-36.76,19.4-56.32,26.63-25.15,9.3-51.05,15.72-77.47,20.01-11.67,1.89-23.41,3.35-35.21,4.38-7.83.69-15.64.88-23.48.88-254.88,0-509.75,0-764.63,0-2.08,0-4.16.03-6.24-.06-2.09-.09-2.64-1.05-1.66-2.75.48-.83,1.02-1.63,1.57-2.41,11.2-15.99,21.75-32.41,32.27-48.85,12.75-19.95,25.2-40.09,37.3-60.44,10.79-18.15,21.51-36.34,31.72-54.83,1.93-3.5,4.03-6.91,5.94-10.42,1.13-2.07,2.76-2.92,5.07-2.91,6.88.02,13.76-.04,20.64-.05,43.04-.06,86.09.34,129.11-.34,29.43-.46,58.86-.37,88.29-.55,29.28-.18,58.56-.14,87.84-.19,16.16-.03,32.33.29,48.48-.12,49.27-1.26,98.54-.43,147.81-.76,25.92-.18,51.85.39,77.76-.26,32.47-.82,64.94-.26,97.41-.68,10.98-.14,21.11-3.15,30.43-9.01,5.45-3.43,10.43-7.38,14.83-12.1,4.27-4.58,6.91-9.88,8.01-16.06,1.42-7.99,1.13-15.94-.31-23.86-.87-4.76-2.76-9.16-5.4-13.25-2.23-3.47-5.36-5.96-8.77-8.04-7.04-4.29-14.59-7.17-22.92-7.94-3.85-.36-7.61-.39-11.46-.04-4.45.4-8.95.33-13.43.33-121.92.01-243.84.01-365.75,0-5.6,0-11.2-.14-16.8-.03-12.33.25-24.64-.36-36.91-1.2-20.28-1.39-40.43-3.94-60.1-9.37-16.91-4.67-33-11.27-47.66-21.03-5.59-3.73-10.82-7.92-15.81-12.46-8.1-7.36-15.11-15.61-21.21-24.66-8.42-12.49-14.22-26.09-17.09-40.91-.27-1.41-.4-2.85-.67-4.26-.24-1.25-.43-2.55-.91-3.71-1.13-2.71-4.7-3.35-6.77-1.25-.55.56-.97,1.26-1.4,1.93-13.09,20.3-26.17,40.61-39.26,60.91-6.94,10.76-13.89,21.5-20.82,32.26-15.17,23.53-30.33,47.06-45.51,70.59-6.94,10.76-13.89,21.5-20.83,32.26-15.78,24.47-31.56,48.94-47.35,73.4-7.63,11.83-15.3,23.63-22.93,35.47-7.98,12.37-15.98,24.72-23.85,37.15-3.01,4.75-6.45,9.17-10.27,13.26-10.96,11.73-22.99,22.2-36.42,31.08-9.48,6.27-19.74,10.48-30.86,12.7-9.12,1.82-18.35,2.62-27.64,2.86-12.98.33-25.89-.48-38.7-2.74-16.21-2.86-30.95-8.99-43.76-19.52-5.44-4.47-10.86-8.95-15.78-14-8.19-8.4-15.28-17.63-21.62-27.48-7.88-12.26-14.64-25.16-21.66-37.91-5.49-9.96-11.52-19.57-17.52-29.22-9.96-16.03-19.95-32.05-29.93-48.07-8.63-13.85-17.29-27.68-25.92-41.53-9.82-15.75-19.62-31.5-29.43-47.25-9.89-15.89-19.79-31.78-29.68-47.66-9.56-15.34-19.11-30.69-28.68-46.02-.76-1.22-1.48-2.49-2.44-3.55-2.14-2.35-4.86-1.92-6.15.92-.39.86-.62,1.81-.86,2.74-4.24,15.92-8.46,31.85-12.69,47.77-7.65,28.75-15.32,57.5-22.95,86.26-8.95,33.71-17.85,67.42-26.79,101.13-6.68,25.2-13.38,50.4-20.09,75.6-3.17,11.9-6.37,23.8-9.57,35.69-1.46,5.42-1.48,5.47-7.19,5.47-45.12.01-90.24,0-135.36,0-31.52,0-63.04,0-94.56-.01-2.56,0-5.11-.16-7.67-.25v-1.92Z"/>
      <path class="cls-1" d="m3045.12,739.29c1.21-2.48,3.12-4.42,5-6.39,14.53-15.14,27.59-31.5,39.86-48.5,8.71-12.07,16.73-24.59,24.09-37.53,8.94-15.74,16.73-32.01,23.13-48.96,6.35-16.82,10.9-34.1,13.82-51.82,2.45-14.9,3.25-29.91,2.29-44.94-1.82-28.49-9.58-55.36-23.26-80.47-7.13-13.1-15.49-25.37-25.06-36.83-4.82-5.77-9.68-11.5-15.03-16.79-.57-.56-1.11-1.16-1.6-1.78-.65-.83-.79-1.77-.19-2.67.8-1.2,1.63-2.37,2.51-3.51,12.14-15.59,22.31-32.39,30.77-50.22,10.54-22.22,18.1-45.43,22.38-69.68,1.56-8.82,2.64-17.68,3.17-26.64.38-6.39.83-12.76.65-19.16-.6-21.04-3.65-41.68-9.9-61.83-6.59-21.23-16.13-41.05-28.26-59.64-6.65-10.18-14.05-19.81-21.97-29.06-6.67-7.79-14.03-14.89-21.21-22.18-.95-.96-2.65-1.82-1.93-3.45.6-1.36,2.25-.83,3.48-.91,1.27-.08,2.56-.02,3.84-.02,147.47,0,294.93,0,442.4,0,2.4,0,4.8.05,7.2.08v137.28c-2.24-.03-4.48-.07-6.72-.07-56.64,0-113.27,0-169.91,0-27.36,0-54.72,0-82.08.01-5.95,0-6.16.21-6.16,6.27-.01,45.44-.01,90.87,0,136.31,0,1.28.05,2.56.18,3.83.13,1.26.9,2.09,2.16,2.18,1.91.15,3.83.19,5.75.19,83.03.01,166.07.01,249.1.02,2.56,0,5.12.04,7.68.06v141.12c-31.82,0-63.64,0-95.46,0-54.21,0-108.41,0-162.62,0-6.75,0-6.8.05-6.8,6.56-.01,45.89-.01,91.78,0,137.68,0,1.28,0,2.56.15,3.83.17,1.56.9,2.36,2.4,2.54,1.42.17,2.87.19,4.3.19,31.82.01,63.64-.11,95.46.04,31.81.16,63.62-.43,95.44.49,20.29.59,40.61.11,60.92.12,2.07,0,4.15.14,6.22.22v144h-476.16Z"/>
      <path class="cls-3" d="m2438.05.06C2597.57.06,2757.09.08,2916.6,0c10.79,0,21.39,1.25,31.9,3.34,20.83,4.13,40.75,11.07,59.71,20.6,15.78,7.93,30.39,17.64,43.77,29.25,20.29,17.6,35.8,38.66,46.83,63.06,3.89,8.61,7.13,17.48,9.43,26.67,2.36,9.46,5.03,18.86,6.43,28.54,1.45,9.98,2.59,19.98,2.54,30.08-.01,2.72.02,5.44,0,8.16-.19,17.54-2.73,34.71-7.82,51.52-4.39,14.5-10.68,28.08-19.23,40.61-7.08,10.38-15.43,19.56-25.09,27.6-10.65,8.86-22.29,16.08-35,21.58-.73.32-1.47.64-2.15,1.06-.37.24-.84.67-.87,1.05-.05.79.7.98,1.32,1.11,8.03,1.69,15.67,4.55,23.03,8.11,9.85,4.76,18.75,10.94,27.11,17.99,12.76,10.76,22.96,23.6,31.16,38.02,7.39,12.98,13.02,26.72,17.01,41.14,3.21,11.6,5.32,23.38,6.59,35.33.14,1.27.17,2.55.18,3.83.05,4.32.02,8.64.12,12.96.31,13.66-1.3,27.13-4.01,40.49-4.87,23.97-14.05,46.15-27.65,66.48-7.59,11.34-16.29,21.79-26.32,31.04-11.56,10.66-24.19,19.9-37.88,27.7-23,13.1-47.62,21.83-73.33,27.8-10.92,2.53-21.94,4.5-33.02,6.07-9.81,1.38-19.65,2.29-29.61,2.28-173.76-.08-347.52-.05-521.28-.05-2.24,0-4.48,0-6.71-.17-1.77-.14-2.51-.99-2.69-2.8-.12-1.27-.12-2.56-.12-3.84-.01-61.76,0-123.52-.06-185.28,0-6.32,1.36-12.39,2.73-18.46,4.35-19.27,10.97-37.75,19.15-55.72,8.79-19.31,19.64-37.37,32.2-54.41,5.12-6.95,10.59-13.63,16.4-20.04,4.08-4.51,8.17-9.01,12.55-13.22,16.23-15.57,34-29.1,53.57-40.26,21.42-12.21,44.19-21.01,68.04-27,13.81-3.47,27.85-5.83,42.03-7.31,5.27-.55,10.52-.72,15.8-.72,76,0,152,0,228,0q7.36,0,13.43-3.91c7.19-4.61,13.66-10.08,19.24-16.51,5.29-6.11,9.27-12.94,10.89-21.06,1.53-7.67-.27-14.6-3.89-21.21-3.28-5.99-8.13-10.68-13.29-15.02-4.91-4.13-10.39-7.46-15.94-10.67-2.14-1.24-4.39-1.89-6.86-1.78-.96.04-1.92,0-2.88-.01-47.02-.91-94.05-.93-141.09-1.04-26.38-1.37-52.78-.5-79.17-.83-9.6-.12-19.21.15-28.8-.16-19.19-.61-38.38-.68-57.57-.73-21.28-.05-42.57.16-63.84-.29-17.11-.36-34.21-.62-51.32-.65-19.2-.04-38.41.31-57.6-.26-43.99-1.31-87.98-.39-131.96-.59-44.16-.2-88.32-.04-132.48-.04-44,0-88-.09-132,.04-20.19.06-39.76,3.66-58.48,11.46-15.34,6.39-29.26,15.08-41.94,25.79-21.18,17.89-37.86,39.35-50.66,63.89-4.29,8.23-8.36,16.57-11.34,25.39-.25.75-.57,1.5-.92,2.21-.49.99-1.59,1.16-2.37.34-.66-.69-1.24-1.46-1.83-2.21-15.13-19.24-32.68-35.94-52.48-50.31-15.58-11.31-32.08-21.11-49.44-29.4-26.96-12.88-54.91-22.89-84.44-28.1-.16-.03-.32-.04-.48-.07-3.36-.66-3.83-1.37-2.55-4.54,3.12-7.72,6.96-15.11,10.95-22.41,8.94-16.36,19.83-31.37,32.06-45.38,6.93-7.94,14.19-15.59,22.03-22.71,10.44-9.48,21.29-18.41,32.65-26.73,12.53-9.18,25.62-17.51,39.16-25.11,26.02-14.59,53.13-26.75,81.27-36.64,26.62-9.36,53.77-16.69,81.51-21.76,6.13-1.12,12.31-1.99,18.49-2.86,1.89-.27,3.83-.23,5.75-.23,15.04-.02,30.08,0,45.12,0,146.56,0,293.12,0,439.68,0h0Zm298.31,527.87v.02c43.5,0,87-.02,130.5.03,4.03,0,7.99-.29,11.89-1.27,12.27-3.06,20.74-10.28,24.43-22.62,1.56-5.22,2.7-10.52,2.77-16.02.02-1.75.3-3.5.45-5.25.54-6.24.48-12.46-.71-18.63-.52-2.71-1.56-5.19-3.38-7.32-4.87-5.72-10.69-10.05-17.85-12.51-7.92-2.72-16.05-4.31-24.42-4.53-3.84-.1-7.68-.13-11.51-.13-57.09,0-114.19,0-171.28,0-1.44,0-2.88.04-4.32.01-4.37-.1-8.6.69-12.69,2.18-15.09,5.45-28.63,13.37-39.99,24.84-12.31,12.43-20,27.22-22.92,44.46-.78,4.59-.7,9.24-.41,13.88.12,1.83.93,2.6,2.72,2.75,1.75.14,3.51.11,5.27.11,43.82,0,87.64,0,131.46,0Z"/>
      <path class="cls-5" d="m2464.87,274.75c-1.16,1.41-2.14,1.55-3.02,1.85-17.63,5.99-34.34,14.01-50.58,23.06-13.02,7.26-25.4,15.48-37.34,24.38-14.16,10.55-27.11,22.47-38.92,35.54-14.88,16.47-27.38,34.64-36.49,54.96-7.37,16.44-12.5,33.55-14.71,51.49-1.17,9.53-1.78,19.08-1.78,28.69.06,70.72.04,141.44.03,212.15,0,1.43-.08,2.88-.26,4.3-.13,1.03-.88,1.7-1.89,1.92-.78.17-1.58.24-2.38.25-1.76.04-3.52.03-5.28.03-163.52,0-327.03,0-490.55,0-.48,0-.97.07-1.44-.01-1.93-.32-4.12.88-5.79-.97,1.02-1.83,3.07-2.15,4.66-3.14,5.04-3.15,9.75-6.71,14.07-10.78,11.63-10.95,21.01-23.66,29.03-37.4,8.98-15.38,16.27-31.53,22.35-48.27,10.15-27.93,16.67-56.76,21.31-86.04,1.8-11.36,3.33-22.78,4.29-34.26.29-3.5.82-6.98.93-10.51.03-.94.33-1.88.58-2.79.19-.7,1.02-.91,1.54-.4.68.67,1.36,1.35,1.96,2.1,8.49,10.6,18.96,18.99,30.03,26.66,12.69,8.79,26.36,15.74,40.9,20.93,6.04,2.15,12.31,3.41,18.66,4.34,7,1.02,14.03.96,21.07.97,9.12,0,18.24,0,27.36-.01,5.97,0,11.79-1,17.46-2.83,11.18-3.61,19.56-10.43,24.79-21.17,4.2-8.63,6.94-17.66,7.09-27.18.15-9.58-2.39-18.65-7.74-26.81-7.36-11.22-17.49-18.45-30.46-21.83-6.69-1.74-13.47-2.47-20.36-2.96-15.18-1.07-30.39-.35-45.56-.97-13.08-.54-26.21-1.05-38.99-4.52-9.63-2.61-18.88-6.07-27.12-11.86-6.45-4.53-12.19-9.85-17.37-15.77-6.59-7.51-9.46-16.58-10.62-26.29-.88-7.31-1.31-14.67-.91-22.03.44-8.14,1.1-16.26,2.99-24.24,1.53-6.47,4.18-12.45,7.61-18.06,5.38-8.81,11.92-16.68,20.47-22.61,9.13-6.33,19.12-10.31,30.44-10.24,1.6,0,3.2-.02,4.8-.02,175.68,0,351.35,0,527.03,0,2.53,0,5.09-.17,8.13.31Z"/>
      <path class="cls-2" d="m1836.98.29c-1.58,1.55-2.9,1.56-4.13,1.73-16.61,2.28-32.42,7.33-47.81,13.81-22.26,9.37-42.59,22.02-61.79,36.57-12.25,9.28-23.97,19.18-34.92,29.99-2.84,2.81-5.97,5.33-8.74,8.2-18.92,19.57-36.78,40.05-52.49,62.32-4.89,6.93-9.69,13.92-14.11,21.16-.67,1.09-1.42,2.13-2.08,3.23-1.1,1.83-2.72,2.59-4.82,2.52-1.28-.05-2.56,0-3.84,0-149.44,0-298.87,0-448.31,0-1.76,0-3.52,0-5.27-.17-1.59-.15-2.31-.83-2.49-2.43-.34-3.02-.75-6.05-.79-9.08-.3-24.45-4.1-48.4-10.19-72.03-5.69-22.09-13.8-43.26-24.56-63.39-4.76-8.9-10.17-17.4-16.37-25.38-.59-.76-1.18-1.51-1.7-2.31-.44-.68.07-1.7.93-1.8,1.27-.15,2.54-.24,3.82-.24,7.84-.04,15.68-.05,23.52-.06,54.24-.08,108.48.37,162.71-.38,50.87-.7,101.74-.35,152.61-.67,27.04-.17,54.09.39,81.11-.27,30.39-.75,60.78-.38,91.17-.57,32-.2,64-.15,96-.21,11.84-.02,23.68.2,35.52-.09,24.63-.61,49.26-.62,73.89-.66,6.72-.01,13.44-.01,20.16,0,.78,0,1.56.11,2.99.21Z"/>
    </g>
  </g>
</svg>