<?xml version="1.0" encoding="UTF-8"?>
<svg id="Layer_2" data-name="Layer 2" xmlns="http://www.w3.org/2000/svg" viewBox="0 0 940.82 606.24">
  <defs>
    <style>
      .cls-1 {
        fill: #0271cb;
      }

      .cls-2 {
        fill: #0d3154;
      }
    </style>
  </defs>
  <g id="Layer_1-2" data-name="Layer 1">
    <g>
      <path class="cls-2" d="m0,264.91c2.39-3.42,1.27-7.52,1.79-11.21,3.36-23.57,9.13-46.32,18.36-68.38,9.04-21.61,19.23-42.45,32.62-61.71,5.56-8,12.37-14.91,18.66-22.26,3.84-4.48,7.41-9.12,10.38-14.15,1.55-2.62,3.16-5.35,5.63-6.68,7.89-4.23,13.48-11.28,20.81-16.18,17.07-11.41,33.18-24.34,52.09-32.83,26.73-12.01,53.57-23.11,83.04-27.44,23.51-3.45,47.09-5.25,70.47-3.18,23.83,2.11,47.8,5.45,70.47,14.39,27,10.65,53.79,21.78,76.94,39.71,14.17,10.97,29.09,21.24,41.05,34.75,16.83,19.02,33.45,38.23,45.34,61.02,13.28,25.46,24.59,51.64,30.26,79.91,2.31,11.55,3.33,23.32,4.59,35.06,1.19,11.01-.46,22.09,1.67,33.01.42,2.15.66,3.18,3.14,3.16,14.81-.11,29.7.86,44.41-.32,14.98-1.2,29.82-.03,44.67.49,9.98.35,20.18.76,29.87,4.33,15.21,5.61,25.19,16.68,32.7,30.41,6.15,11.26,9.27,23.28,9.16,36.21-.1,12.02.06,24-3.02,35.76-4.45,16.98-14.9,29.1-29.89,37.76-16.62,9.6-34.63,10.9-53.31,10.31-20.45-.65-40.93-.14-61.4-.15-5.53,0-7.12-2.05-6.19-7.59,1.29-7.71,1.27-15.44-.03-23.15-.87-5.2.17-6.52,5.63-6.52,25.29.03,50.59.39,75.88.01,11.62-.18,22.57-3.82,28.94-14.39,7.04-11.68,7.85-24.72,5.06-37.91-1.9-9-6.49-16.79-13.25-22.84-5-4.47-11.87-5.26-18.35-5.31-26.96-.22-53.92-.08-80.88-.11-13.46-.02-16.29,6.79-16.65,16.49-.08.07-.23.15-.22.21.02.21.1.41.16.62,0,41.25-.01,82.5-.02,123.75-.36.68-.43,1.34.14,1.96.82,6.63.28,13.28.31,19.92.01,3.19-1.63,4.71-5.02,4.66-9.32-.14-18.64-.21-27.96,0-3.86.09-4.81-1.46-4.79-5.01.12-17.63.05-35.26.05-52.89,0-1.74,0-3.48,0-5.23-.31-.1-.62-.2-.93-.3-1.9,2.9-4.21,5.61-5.63,8.73-4.38,9.61-11.9,16.79-18.6,24.58-1.85,2.15-4.66,1.66-7.1.19-17.94-10.76-35.86-21.54-52.55-34.24-2.54-1.93-5.58-3.3-8.56-4.55-3.06-1.29-3.4-2.92-1.19-5.11,15.75-15.55,24.63-35.12,32.75-55.22,4.19-10.38,9.65-20.31,11.98-31.33,2.21-10.47,4.26-20.97,5.02-31.74.57-8.02,2.11-16.02,1.63-24.07-.77-12.71-2.75-25.31-4.28-37.94-2.54-21.01-12.36-39.18-20.14-58.1-5.02-12.21-13.19-22.89-21.74-33.05-15.12-17.95-32.59-33.19-52.56-45.59-18.11-11.24-37.84-18.65-58.22-24.29-20.48-5.67-41.48-8.25-62.76-7-19.08,1.12-37.78,4.72-55.7,11.43-14.88,5.57-29.67,11.45-43.11,20.12-16.36,10.56-31.52,22.4-44.43,37.23-12.88,14.78-24.32,30.46-32.73,48.08-8.51,17.85-14.79,36.65-18.41,56.11-2.6,13.97-2.2,28.25-2.01,42.45.25,19.03,2.34,37.72,8.88,55.74,8.2,22.6,17.82,44.48,32.98,63.43,16.46,20.56,35.69,37.99,58.29,51.73,9.75,5.93,19.3,12.21,29.54,17.22,14.95,7.33,30.94,11.12,47.37,13.7,9.76,1.53,19.63,1.02,29.32,2.77,3.27.59,6.56,1.65,9,3.56,7.42,5.78,16.65,8.77,23.76,14.65,19.09,15.8,41.61,26.3,61.43,40.91,1.71,1.26,3.21,2.79,4.98,4.35-14.94,6.05-30.04,9.8-45.47,12.43-24.87,4.24-49.95,4.96-75.06,3.9-10.39-.44-20.73-2.35-31.04-3.93-13.77-2.12-27.6-4.91-40.38-10.16-26.84-11.03-53.64-22.39-76.99-40.28-10.56-8.1-21.65-15.51-32.28-23.52-5.71-4.3-9.45-10.54-13.96-15.97-10.51-12.66-20.32-25.84-28.66-40.12-9.63-16.47-19.25-32.95-26.68-50.54-2.83-6.69-8.31-11.96-9.5-19.52-1.95-12.31-4.45-24.53-6.53-36.83C1.83,336.16,1,328.96,0,321.8c0-18.96,0-37.93,0-56.89Z"/>
      <path class="cls-1" d="m503.36,606.24c-9.67-6.15-19.19-12.56-29.09-18.33-3.81-2.22-7.56-4.62-11.48-6.6-4.47-2.25-7.96-6-12.15-8.2-5.26-2.76-9.89-6.24-14.78-9.43-12.28-8.02-24.78-15.7-37.29-23.35-12.25-7.49-24.04-15.73-36.16-23.46-9.78-6.24-19.82-12.06-29.6-18.31-7.87-5.03-15.24-10.91-23.34-15.49-7.18-4.07-14.02-8.66-21.11-12.86-4.12-2.45-7.52-5.99-12.18-7.89-12.13-4.94-21.81-13.98-33.09-20.25-5.81-3.23-11.75-6.24-17.38-9.8-2.23-1.41-3.24-3.02-3.22-5.94.16-23.94.08-47.88.03-71.81,0-4.03,1.38-5.89,5.87-5.82,15.81.22,31.66.77,47.41-.16,13.42-.79,27.1-1.46,39.41-8.56,4.9-2.82,8.44-6.83,12.24-10.63,5.95-5.95,8.76-14.06,10.74-21.71,3.4-13.11,4.27-27.16,1.84-40.27-2.48-13.39-5.33-27.64-17.09-37.4-4.38-3.64-9.57-4.78-14.69-5.88-16.44-3.54-33.21-2.48-49.86-3.32-10.43-.53-20.84-.53-31.26-.73-3.68-.07-4.41-2.13-4.43-5.04-.08-11.14-.04-22.28-.21-33.43-.16-11.27-.43-22.55-.83-33.81-.11-3.06.79-4.73,3.97-4.94,1.47-.09,2.94-.51,4.4-.51,17.8.03,35.64-.63,53.39.72,13.32,1.01,26.81.51,39.95,2.43,13.44,1.96,26.95,4.02,40.16,7.91,16.78,4.94,31.31,13.95,45.97,22.82,7.17,4.34,12.67,10.61,15.81,18.59,1.79,4.56,4.66,8.55,6.89,12.87,7.5,14.5,11.55,29.7,13.51,45.86,1.54,12.72,2.37,25.38,1.63,38.08-1.29,22.29-4.86,44.11-16.77,63.65-6.23,10.23-12.4,20.82-21.79,28.29-8.91,7.08-17.78,14.65-29.05,18.29-3.95,1.28-7.53,3.67-11.37,5.36-2.78,1.22-2.7,2.4-.56,4.25,10.61,9.15,22.36,16.69,34.18,24.07,15.1,9.42,30.39,18.54,44.86,28.91,10.63,7.62,22.37,13.4,33.14,20.8,12.75,8.76,25.8,17.1,39.05,25.09,10.02,6.04,19.75,12.45,29.5,18.91,13.44,8.9,27.84,16.39,41.11,25.52,13.79,9.49,28.01,18.27,42.1,27.26,6.79,4.34,13.45,9.02,21.18,12.09,4.75,1.89,8.36,6.66,12.76,10.37-1.92,1.13-3.58.78-5.14.79-38.94.07-77.89.04-116.83.24-6.45.03-12.95-.35-19.37.77h-20.97Z"/>
      <path class="cls-2" d="m825.59,454.76c-2.29.08-2.56-1.22-2.54-3.18.1-9.14.18-18.29-.02-27.43-.09-3.8,1.4-4.79,5-4.77,20.13.13,40.27.24,60.39,0,13.24-.16,20.64-12.86,14.48-24.32-2.22-4.14-6.07-6.1-10.35-6.29-23.92-1.05-47.87-1.08-71.79-.02-8.52.38-13.5,5.9-13.56,14.34-.11,17.46-.08,34.92-.04,52.37.02,8.37,5.49,15.31,14.87,15.2,20.46-.23,40.93-.03,61.39,0,6.36,0,6.28.02,6.27,6.31-.02,7.98.06,15.96.2,23.94.07,3.73-.96,5.65-5.32,5.61-22.96-.18-45.92.11-68.88-.18-9.95-.13-18.62-4.63-26.06-10.88-8.09-6.8-14.24-15.18-16.87-25.7-1.63-6.54-2.65-13.11-1.15-19.86.32-1.43.23-2.96.23-4.45.03-16.13-.03-32.26.1-48.38.1-13.04,6.84-22.83,15.62-31.72,10.36-10.5,23.28-12.92,37.27-12.82,21.13.14,42.26-.23,63.38.12,14.66.24,28.38,3.83,39.08,14.82,11.7,12.01,15.3,26.32,12.76,42.77-1.29,8.32-3.09,16.05-8.13,23.06-8.86,12.34-20.78,18.38-35.68,20.43-12.86,1.77-25.68,1.5-38.54,1.62-1.81.02-3.62-.31-5.43-.47-8.89-.04-17.78-.08-26.68-.12Z"/>
      <path class="cls-2" d="m317.61,286.35c.66,27.7-21.85,46.38-46.08,47.46-27.72,1.24-48.68-22.75-49.95-46.05-1.52-27.99,22.02-50.2,47.42-50.05,27.12.16,49.92,21.94,48.61,48.64Zm-48.06-41.38c-22.17-1.48-40.09,20.36-40.88,38.84-1.02,23.58,19.46,43.48,40.19,43.07,22.07-.44,43.3-18.43,41.82-44.19-1.11-19.27-17.23-38.85-41.12-37.72Z"/>
      <path class="cls-2" d="m723.13,553.39c-4.25,3.09-6.98,2.19-9.18-1.72-2-3.56-5.57-3.41-9.13-3.35-8.95.16-15.66-5.91-16.7-14.48-1.4-11.48,4.7-17.97,12.79-20.2,6.84-1.89,15.8,1.68,19.16,7.05,4.45,7.13,4.45,16.34-1.23,22.09-3.58,3.63-1.94,5.28.74,7.55,1.13.96,2.24,1.93,3.54,3.06Zm-6.06-22.28c0-8.45-4.08-12.35-12.04-12.81-5.68-.33-11.53,5.48-11.82,12.69-.24,6.06,5.99,13.14,11.24,13.35,6.81.27,12.62-5.83,12.61-13.23Z"/>
      <path class="cls-2" d="m602.55,546.77c-.63,2.9-2.95,1.6-4.38,1.43-1.81-.21-1.07-2.12-1.07-3.3-.07-8.78-.1-17.56.01-26.34.02-1.39-1.25-3.7,1.29-4.05,2.1-.28,4.29-.81,5.98,1.94,4.47,7.29,9.39,14.3,14.12,21.41,0,0,.1.31.1.31h.36c.34-.74.69-1.47,1.03-2.2,0,0-.02-.24-.02-.24-.02-1.32-.04-2.63-.06-3.94.36-5.56.48-11.13-.05-16.7,3.54-1.43,5.78-1.46,5.6,3.58-.31,8.62-.04,17.25-.15,25.87-.02,1.25,1.1,3.41-1.16,3.69-2.1.26-4.32.84-6.02-1.89-4.79-7.72-9.99-15.2-15.03-22.77-.24-.07-.48-.16-.73-.2-.02,0-.13.28-.13.43.1,7.66.21,15.32.32,22.98Z"/>
      <path class="cls-2" d="m888.04,534.97c0,3.31.08,6.63-.05,9.94-.05,1.14.89,2.97-1.01,3.31-1.56.28-4.57.16-4.65-.26-.79-3.79-2.46-1.46-3.9-.77-5.32,2.55-12.55.97-15.65-2.85-4.94-6.1-3-16.15.47-19.92,4.86-5.28,11.5-4.61,16.73-1.48.84.5,1.38,2.17,1.99-.39.58-2.43,3.08-.97,4.65-1.02,2.11-.07,1.36,1.88,1.39,3.01.11,3.48.04,6.96.03,10.44Zm-6.19-.67c.74-4.67-2.8-8.72-8.71-8.87-3.9-.1-8.25,4.82-8.23,8.99.02,4.23,4.81,9.88,8.43,9.94,4.58.08,8.51-4.55,8.52-10.05Z"/>
      <path class="cls-2" d="m631.19,534.72c-.78-8.8,5.84-14.61,13.6-14.24,9.38.45,14.25,6.01,14.18,13.66-.07,8.13-4.12,14.96-16.25,14.31-6.72-.36-11.59-5.85-11.53-13.73Zm21.95-.44c-.04-4.74-3.91-8.83-8.4-8.88-4.53-.05-8.63,4.59-8.52,9.62.1,4.4,4.55,9.33,8.4,9.31,4.5-.03,8.56-4.83,8.52-10.05Z"/>
      <path class="cls-2" d="m779.42,548.36c-8.3.05-13.19-4.99-13.46-13.33-.31-9.66,5.19-14.01,13.37-14.57,7.55-.52,14.91,6.15,14.58,13.38-.33,7.18-4.13,15.37-14.48,14.52Zm-8.38-13.79c.15,4.86,4.48,9.86,8.47,9.77,4.68-.1,8.77-4.95,8.57-10.18-.18-4.76-4.15-8.78-8.65-8.75-4.31.03-8.53,4.63-8.39,9.15Z"/>
      <path class="cls-2" d="m832.76,531.32c0-4.64.13-9.29-.05-13.92-.1-2.44.73-3.13,3.09-3.02,3.64.18,7.32.26,10.94-.03,4.96-.4,9.78,2.5,10,9.07.2,6.04-2.37,9.35-8.83,10.04-2.4.26-4.71,1.35-7.21.94-2.16-.36-2.94.53-2.8,2.73.17,2.64-.06,5.31.05,7.95.08,2.03.01,3.47-2.76,3.38-2.53-.08-2.5-1.43-2.45-3.22.07-2.32.03-4.64.03-6.96,0-2.32,0-4.64,0-6.96Zm5.36-7.17c-1.63,4.7.83,5.58,5.23,5.31,3.9-.24,7.35-.48,7.51-5.48.13-4.06-2.07-5.16-7.88-5.68-4.77-.43-5.77,1.5-4.86,5.85Z"/>
      <path class="cls-2" d="m906.62,541.13c1.95-5.45,3.55-10.03,5.23-14.58,1.32-3.59,3.02-6.67,7.97-4.71-5.28,12.61-10.58,25.22-15.82,37.85-1.42,3.41-4.01.61-6.64,2.62.93-2.78,1.11-4.33,1.88-5.48,4.08-6.07,3.48-12,.25-18.23-2.15-4.15-3.78-8.58-5.44-12.96-.48-1.26-2.77-3.1-.34-4.03,2.08-.8,4.9-.98,6.02,2.28,1.68,4.89,3.45,9.75,5.23,14.6.22.59.68,1.09,1.66,2.62Z"/>
      <path class="cls-2" d="m748.33,546.58c-.3,3.23-2.75,1.63-4.2,1.64-1.66.02-1.22-1.65-1.23-2.71-.03-9.62,0-19.23-.05-28.85-.01-1.91.26-3.16,2.65-3.1,4.97.12,9.96.08,14.93,0,1.87-.03,2.62.58,2.67,2.55.05,2.2-1.08,2.38-2.76,2.32-2.32-.08-4.68.22-6.96-.08-4.23-.56-5.5.76-5.53,5.26-.03,4.84,1.25,6.63,6.01,5.78,1.13-.2,2.32-.07,3.48-.02,1.21.06,2.89-.48,2.67,1.75-.16,1.62-1.21,2.2-2.72,2.26-2.97.11-5.94.25-8.9.37-.56,4.27-.36,8.54-.05,12.82Z"/>
      <path class="cls-2" d="m805.3,542.55c.03.99.02,1.99.11,2.98.18,2.07-.55,2.92-2.81,2.9-2.19-.01-2.85-.67-2.82-2.85.11-7.14.06-14.28,0-21.42-.01-1.65.36-3.65,2.2-2.64,3.95,2.17,7.13-.75,10.59-1.16.98,3.66.8,6-3.62,6.66-3.84.57-3.13,4.42-3.72,7.17-.38,2.78-.39,5.57.06,8.36Z"/>
      <path class="cls-2" d="m675.45,525.02c1.15-2.63,2.37-5.1,3.3-7.68.77-2.15,1.99-3.66,4.29-2.81,2.77,1.02.16,3.02-.1,3.98-.96,3.47-.8,8.91-7.48,6.5Z"/>
      <path class="cls-2" d="m825.59,454.76c8.9.04,17.79.08,26.68.12-8.9.45-17.79.68-26.68-.12Z"/>
      <path class="cls-2" d="m602.55,546.77c-.11-7.66-.22-15.32-.32-22.98,0-.15.11-.43.13-.43.25.04.49.13.73.2-.18,7.73-.36,15.47-.55,23.2Z"/>
      <path class="cls-2" d="m619.86,515.09c.53,5.57.41,11.14.05,16.7-.09-5.48-.18-10.94-.28-16.41,0-.16-.08-.32-.12-.48.12.06.23.13.35.19Z"/>
      <path class="cls-2" d="m748.33,546.58c-.3-4.28-.51-8.55.05-12.82.43,4.28.47,8.55-.05,12.82Z"/>
      <path class="cls-2" d="m805.24,534.19c.57,2.79.48,5.57.06,8.36"/>
      <path class="cls-1" d="m580.71,481.93c-.56-.62-.49-1.28-.14-1.96.51.63.5,1.28.14,1.96Z"/>
      <path class="cls-1" d="m580.59,356.23c-.06-.21-.14-.41-.16-.62,0-.06.15-.14.22-.21.08.22.17.43.21.65,0,.04-.18.12-.28.18Z"/>
      <polygon class="cls-2" points="619.97 535.73 619.99 535.97 619.75 535.85 619.97 535.73"/>
      <path class="cls-2" d="m618.96,538.17h-.36s-.1-.31-.1-.31c0,0,.33,0,.33,0l.13.3Z"/>
      <path class="cls-2" d="m278.88,287.52c2.1,3.47,4.25,6.91,6.3,10.4,1.95,3.32,3.8,6.69,5.74,10.12-8.32,2.17-9.57,1.61-13.49-5.19-2.43-4.21-5.33-8.17-7.46-12.52-1.43-2.91-3.64-2.66-5.76-2.25-2.4.46-1.14,2.75-1.19,4.19-.16,4.48-.31,8.98.01,13.44.28,3.93-2.18,3.2-4.42,3.2-2.25,0-4.4.61-4.33-3.28.25-15.11.09-30.23.13-45.34,0-1.45-.84-3.65,2.03-3.45,7.22.51,14.51-1.03,21.7.89,8.22,2.19,12.28,6.93,12.49,14.98.16,6.17-4.28,11.93-11.15,14.46-.14.05-.27.15-.61.34Zm-9.08-23.53q-6.85.01-6.85,6.72c0,2.66.1,5.32-.03,7.97-.11,2.15.68,3.07,2.86,2.9,2.95-.24,5.89.19,8.87-.6,5.29-1.41,8.63-8.53,5.22-13.58-2.75-4.07-6.38-3.3-10.06-3.41Z"/>
    </g>
  </g>
</svg>