<?xml version="1.0" encoding="UTF-8"?>
<svg id="Layer_2" data-name="Layer 2" xmlns="http://www.w3.org/2000/svg" viewBox="0 0 806.7 169.39">
  <defs>
    <style>
      .cls-1 {
        fill: #e93b42;
      }

      .cls-2 {
        fill: #6e77f9;
      }
    </style>
  </defs>
  <g id="Layer_1-2" data-name="Layer 1">
    <g>
      <path class="cls-2" d="m282.88,28.44h-29.17c-4.86,0-7.29,2.03-7.29,6.08,0,1.8.97,3.24,2.9,4.32,1.93,1.08,4.34,1.87,7.22,2.36,2.88.5,5.99,1.35,9.32,2.57,3.33,1.22,6.43,2.7,9.32,4.46,2.88,1.76,5.29,4.59,7.23,8.51,1.93,3.92,2.9,8.67,2.9,14.25,0,9-2.72,15.91-8.17,20.73-5.45,4.82-13.26,7.22-23.43,7.22h-63.12v-25.94h45.12c7.26,0,14.58.35,21.63,2.1,2.44.61,3.66-1.25,3.66-4.11,0-1.8-.97-3.24-2.9-4.32-1.94-1.08-4.34-1.87-7.22-2.36-2.88-.49-5.99-1.35-9.32-2.57-3.33-1.22-6.44-2.7-9.32-4.46-2.88-1.76-5.29-4.59-7.22-8.51-1.94-3.92-2.9-8.66-2.9-14.25,0-9,2.72-15.91,8.17-20.73,5.45-4.81,13.26-7.22,23.43-7.22h29.17v21.88Z"/>
      <path class="cls-2" d="m358.23,27.22h-37.68v10.94h23.09v21.88h-23.09v15.8h37.68v21.88h-61.98V5.35h61.98v21.88Z"/>
      <path class="cls-2" d="m393.48,75.84h35.24v21.88h-59.55V5.35h24.31v70.49Z"/>
      <path class="cls-2" d="m500.43,27.22h-37.68v17.02h32.81v21.88h-32.81v31.6h-24.31V5.35h61.98v21.88Z"/>
      <path class="cls-2" d="m567.27,27.22h-29.17c-4.86,0-7.29,2.03-7.29,6.08,0,1.8.97,3.24,2.9,4.32,1.93,1.08,4.34,1.87,7.22,2.36,2.88.5,5.99,1.35,9.32,2.57,3.33,1.22,6.44,2.7,9.32,4.46,2.88,1.76,5.29,4.59,7.22,8.51,1.93,3.92,2.9,8.67,2.9,14.25,0,9-2.72,15.91-8.17,20.73-5.45,4.82-13.26,7.22-23.43,7.22h-30.38v-21.88h30.38c4.86,0,7.29-2.03,7.29-6.08,0-1.8-.97-3.24-2.9-4.32-1.94-1.08-4.34-1.87-7.22-2.36-2.88-.49-5.99-1.35-9.32-2.57-3.33-1.22-6.44-2.7-9.32-4.46-2.88-1.76-5.29-4.59-7.22-8.51-1.94-3.92-2.9-8.66-2.9-14.25,0-9,2.72-15.91,8.17-20.73,5.45-4.81,13.26-7.22,23.43-7.22h29.17v21.88Z"/>
      <path class="cls-2" d="m588.41,12.91c5.99-5.85,14.34-8.78,25.05-8.78s19.06,2.93,25.05,8.78c5.99,5.85,8.98,13.46,8.98,22.82h-24.31c0-3.06-.86-5.45-2.57-7.16-1.71-1.71-4.1-2.57-7.16-2.57s-5.45.86-7.16,2.57-2.57,4.1-2.57,7.16v31.6c0,3.06.85,5.45,2.57,7.16,1.71,1.71,4.1,2.57,7.16,2.57s5.45-.86,7.16-2.57c1.71-1.71,2.57-4.09,2.57-7.16h24.31c0,9.36-2.99,16.97-8.98,22.82-5.99,5.85-14.34,8.78-25.05,8.78s-19.06-2.92-25.05-8.78c-5.99-5.85-8.98-13.46-8.98-22.82v-31.6c0-9.36,2.99-16.97,8.98-22.82Z"/>
      <path class="cls-2" d="m701.91,81.91h-21.34l-3.38,15.8h-24.85l22.96-92.37h31.87l22.96,92.37h-24.85l-3.38-15.8Zm-4.32-20.66l-6.21-29.57h-.27l-6.21,29.57h12.69Z"/>
      <path class="cls-2" d="m806.7,97.71h-12.15l-31.6-48.21v48.21h-24.31V5.35h24.31l19.44,29.57V5.35h24.31v92.37Z"/>
    </g>
    <g>
      <path class="cls-1" d="m107.41,98.92c-31.2,0-62.4,0-93.6,0-6.21,0-11.03-3.15-12.98-8.4-3.05-8.24,2.62-16.84,11.56-17.49.71-.05,1.44-.04,2.15-.04,62.08,0,124.16,0,186.24-.01,2.01,0,3.98.17,5.87.91,5.97,2.35,9.29,8.15,8.21,14.35-1.05,6.02-6.14,10.4-12.42,10.65-.88.04-1.76.02-2.63.02-30.8,0-61.6,0-92.4,0Z"/>
      <path class="cls-1" d="m66.7,169.35c-6.46.08-12.88.29-19.07-2.34-10.65-4.53-18.46-15.83-18.56-27.4-.05-5.5-.05-11.01,0-16.51.04-5.39,3.62-9.01,8.78-8.97,4.97.04,8.48,3.69,8.53,8.98.05,5.03-.01,10.05.02,15.08.05,8.34,5.52,13.8,13.84,13.84,5.11.02,10.21-.02,15.32.03,3.68.03,6.43,1.73,8.07,5.03,1.51,3.06,1.23,6.06-.83,8.79-1.67,2.21-3.93,3.47-6.76,3.48-3.11.02-6.22,0-9.33,0Z"/>
      <path class="cls-1" d="m190.59,132.76c-.15,3.98.37,8.93-.9,13.82-3.42,13.13-15.59,22.71-29.16,22.78-4.55.02-9.1.03-13.65,0-5.19-.04-8.97-3.68-9-8.61-.04-4.82,3.81-8.6,8.97-8.7,4.31-.08,8.62,0,12.93-.03,7.86-.06,13.43-5.59,13.48-13.4.04-5.27-.07-10.54.05-15.8.08-3.52,1.66-6.38,4.94-7.88,3.11-1.42,6.24-1.2,9.05.94,2.07,1.59,3.25,3.71,3.28,6.36.03,3.19,0,6.39,0,10.52Z"/>
      <path class="cls-1" d="m66.83.22c2.87,0,5.75-.06,8.62.01,5.08.14,9.11,4.02,9.08,8.66-.03,5.05-3.78,8.6-9.2,8.63-4.95.03-9.9-.02-14.85.02-8.53.07-14.06,5.63-14.1,14.15-.02,3.43.04,6.87-.02,10.3-.1,5.36-3.8,9.11-8.82,9.04-4.88-.07-8.53-3.87-8.46-9.1.07-5.5-.54-11.02.45-16.49C32.17,10.88,44.81.31,59.65.21c2.39-.02,4.79,0,7.18,0Z"/>
      <path class="cls-1" d="m190.58,35.51c0,2.23.03,4.47,0,6.7-.09,5.09-3.61,8.75-8.46,8.82-4.81.07-8.63-3.55-8.81-8.55-.14-3.74-.02-7.5-.05-11.25-.06-7.91-5.58-13.52-13.56-13.68-4.39-.09-8.77.02-13.16-.04-4.68-.07-8.27-3.4-8.67-7.93-.36-4.1,2.69-8.68,6.93-8.98,8.79-.63,17.71-1.54,26.26,1.76,11.8,4.55,19.46,15.73,19.52,28.35,0,1.6,0,3.19,0,4.79Z"/>
    </g>
  </g>
</svg>