<?xml version="1.0" encoding="UTF-8"?>
<svg id="Layer_2" data-name="Layer 2" xmlns="http://www.w3.org/2000/svg" xmlns:xlink="http://www.w3.org/1999/xlink" viewBox="0 0 7441.92 2480.64">
  <defs>
    <style>
      .cls-1 {
        fill: url(#linear-gradient-2);
      }

      .cls-2 {
        fill: url(#linear-gradient-6);
      }

      .cls-3 {
        fill: url(#linear-gradient-11);
      }

      .cls-4 {
        fill: url(#linear-gradient-10);
      }

      .cls-5 {
        fill: url(#linear-gradient-5);
      }

      .cls-6 {
        fill: url(#linear-gradient-7);
      }

      .cls-7 {
        fill: url(#linear-gradient-9);
      }

      .cls-8 {
        fill: url(#linear-gradient-3);
      }

      .cls-9 {
        fill: url(#linear-gradient);
      }

      .cls-10 {
        fill: url(#linear-gradient-4);
      }

      .cls-11 {
        fill: url(#linear-gradient-8);
      }

      .cls-12 {
        fill: url(#linear-gradient-12);
      }
    </style>
    <linearGradient id="linear-gradient" x1="1277.32" y1="2553.57" x2="1223.99" y2="462.91" gradientUnits="userSpaceOnUse">
      <stop offset="0" stop-color="#ffc402"/>
      <stop offset="1" stop-color="#f53a03"/>
    </linearGradient>
    <linearGradient id="linear-gradient-2" x1="7295.35" y1="2400.05" x2="7242.02" y2="309.38" xlink:href="#linear-gradient"/>
    <linearGradient id="linear-gradient-3" x1="3137.02" y1="2506.13" x2="3083.69" y2="415.46" xlink:href="#linear-gradient"/>
    <linearGradient id="linear-gradient-4" x1="4431.82" y1="2473.1" x2="4378.48" y2="382.43" xlink:href="#linear-gradient"/>
    <linearGradient id="linear-gradient-5" x1="5501.96" y1="2445.8" x2="5448.63" y2="355.13" xlink:href="#linear-gradient"/>
    <linearGradient id="linear-gradient-6" x1="3839.35" y1="2488.21" x2="3786.01" y2="397.55" xlink:href="#linear-gradient"/>
    <linearGradient id="linear-gradient-7" x1="6616.57" y1="2417.37" x2="6563.24" y2="326.7" xlink:href="#linear-gradient"/>
    <linearGradient id="linear-gradient-8" x1="6087.89" y1="2430.85" x2="6034.55" y2="340.19" xlink:href="#linear-gradient"/>
    <linearGradient id="linear-gradient-9" x1="4942.6" y1="2460.07" x2="4889.27" y2="369.4" xlink:href="#linear-gradient"/>
    <linearGradient id="linear-gradient-10" x1="7049.91" y1="2406.31" x2="6996.57" y2="315.65" xlink:href="#linear-gradient"/>
    <linearGradient id="linear-gradient-11" x1="1281.28" y1="2553.47" x2="1227.94" y2="462.8" xlink:href="#linear-gradient"/>
    <linearGradient id="linear-gradient-12" x1="1857.45" y1="2538.77" x2="1804.12" y2="448.11" xlink:href="#linear-gradient"/>
  </defs>
  <g id="Layer_1-2" data-name="Layer 1">
    <g>
      <path class="cls-9" d="m1324.8,0c2.41.81,4.78,1.85,7.25,2.37,2.49.52,5.08.58,7.63.73,3.83.22,7.7.11,11.5.55,15.24,1.79,30.54,3.11,45.77,4.92,15.24,1.81,30.41,4.19,45.59,6.43,6.33.93,12.62,2.08,18.91,3.26,30.18,5.67,60.38,11.3,90.09,19.13,34.65,9.13,69.18,18.74,102.91,30.9,32.5,11.72,64.76,24.04,96.26,38.33,17.49,7.93,34.82,16.14,52.07,24.56,18.41,8.99,36.26,19.02,54.08,29.1,29.52,16.71,58.45,34.4,86.46,53.54,26.42,18.05,52.24,36.92,77.04,57.17,12.88,10.52,25.71,21.11,38.51,31.72,2.95,2.45,5.76,5.08,8.57,7.69,8.44,7.83,16.65,15.92,25.79,22.98,20.01,18.89,39.54,38.26,58.35,58.35,7.05,9.14,15.19,17.31,23.06,25.71,5.69,6.07,11.16,12.31,16.37,18.81,7.6,9.48,15.68,18.56,23.23,28.1,18.68,23.58,36.9,47.49,53.79,72.39,6.11,9,12.05,18.11,18.16,27.11,14.38,21.19,27.24,43.33,40.28,65.35,3.26,5.5,6.08,11.26,9.11,16.89,5.76,10.7,11.64,21.35,17.25,32.12,4.14,7.94,8.01,16.02,11.88,24.09,1.94,4.04,3.5,8.25,5.43,12.29,14.69,30.59,27.77,61.85,39.51,93.69,5.31,14.41,10.37,28.9,15.32,43.43,9.5,27.88,17.37,56.25,24.8,84.71,6.3,24.13,11.45,48.57,16.02,73.1,3.16,16.98,6.27,33.96,8.31,51.13,1.52,12.7,3.63,25.32,5.44,37.98.45,3.16,1.05,6.35,1.09,9.53.22,17.94,4.69,35.54,4.28,53.53-.12,5.11.2,10.23.3,15.35.15,7.68.4,15.35,1.63,22.96,1.02,6.34,1.26,12.73,1.26,19.13.01,15.36.09,30.71-.05,46.07-.05,5.75-.25,11.54-1.04,17.22-1.34,9.54-1.72,19.11-1.94,28.71-.16,7.04.07,14.12-.64,21.1-1.62,15.9-3.01,31.83-4.61,47.73-.89,8.89-2.24,17.75-3.19,26.66-.89,8.26-2.43,16.45-3.69,24.67-7.56,49.38-18.48,98.05-31.42,146.27-8.15,25.59-15.06,51.56-24.61,76.74-7.71,20.34-14.88,40.88-23.24,60.97-8.85,21.27-17.81,42.48-28.19,63.07-5.47,10.86-10.83,21.77-16.32,32.62-16.75,33.15-35.46,65.16-55.53,96.42-11.06,17.24-22.58,34.15-34.23,50.98-11.65,16.84-23.95,33.21-36.78,49.17-5.61,6.98-11.47,13.77-16.79,20.97-10.28,13.93-22.92,25.85-33.37,39.62-2.69,3.55-6.04,6.6-9.14,9.83-26.57,27.72-53.73,54.85-81.43,81.44-5.54,5.32-11.07,10.64-17.27,15.21-2.06,1.52-4.03,3.16-5.93,4.87-27.1,24.47-56.07,46.6-85.42,68.26-10.8,7.97-22.16,15.2-33.24,22.81-24.81,17.02-50.35,32.92-76.43,47.89-17.75,10.19-35.41,20.57-53.93,29.36-5.78,2.74-11.47,5.67-17.17,8.58-21.09,10.8-42.94,19.91-64.65,29.35-40.56,17.64-82.37,31.79-124.51,44.93-35.44,11.05-71.43,20.08-107.89,27.22-18.21,3.56-36.38,7.34-54.75,9.93-13.92,1.97-27.75,4.71-41.82,5.62-1.91.12-3.85.19-5.73.56-11.34,2.21-22.8,3.16-34.32,3.57-3.88.14-7.56,1.24-11.01,3.06h-203.52c-4.05-2.13-8.4-3.05-12.93-3.18-11.52-.34-23-1.04-34.35-3.28-3.12-.62-6.36-.62-9.54-.98-4.45-.5-8.91-.92-13.33-1.62-10.74-1.7-21.43-3.72-32.18-5.31-24.07-3.55-47.86-8.58-71.59-13.82-40.63-8.96-80.64-20.31-120.15-33.38-10.93-3.62-21.67-7.8-32.47-11.78-37.85-13.94-75.13-29.19-111.22-47.26-16.59-8.3-33.15-16.67-49.7-25.06-5.14-2.6-10.3-5.17-15.25-8.11-29.73-17.6-59.67-34.83-88.21-54.37-10.56-7.23-20.96-14.68-31.46-21.99-19.46-13.53-37.97-28.25-56.41-43.09-8.97-7.22-17.7-14.73-26.62-22-9.94-8.1-19.32-16.76-28.66-25.5-5.13-4.8-10.43-9.44-15.79-13.99-9.57-8.11-43.65-41.79-51.55-51.52-4.85-5.97-10.01-11.63-15.32-17.18-8.4-8.78-16.95-17.44-24.17-27.27-1.51-2.05-3.25-3.96-5.04-5.79-10.31-10.56-19.1-22.39-28.16-33.97-22.09-28.22-42.89-57.37-62.71-87.25-23.02-34.7-43.78-70.7-63.58-107.27-14.63-27.02-27.28-55.03-39.35-83.26-15.61-36.48-29.38-73.67-41.55-111.46-7.46-23.15-14.48-46.41-20.32-70.02-1.84-7.45-3.62-14.92-5.48-22.37-6.19-24.84-11.03-49.95-15.42-75.17-3.51-20.17-6.54-40.41-9.23-60.69-1.93-14.57-2.95-29.26-4.82-43.85-.32-2.53-.36-5.11-.33-7.67.16-16.04-1.88-31.91-3.82-47.78-.47-3.89-1.88-7.41-3.6-10.85v-80.64c1.65-3.48,3.21-6.97,3.51-10.89.34-4.46.41-8.98,1.18-13.37,2-11.4,2.36-22.9,2.65-34.41.18-7.04.78-14.03,1.88-21.01.89-5.68,1.23-11.44,1.85-17.16.63-5.72,1.27-11.43,1.97-17.14.47-3.81,1.08-7.6,1.6-11.4,1.76-12.67,3.13-25.4,5.34-37.99,4.74-27.09,9.87-54.11,16.07-80.91,4.04-17.46,8.76-34.73,13.61-51.98,10.06-35.73,21.24-71.09,34.72-105.7,16.27-41.76,34-82.84,54.58-122.68,7.93-15.35,16.09-30.56,24.6-45.6,10.72-18.93,21.79-37.66,33.51-55.98,18.29-28.56,37.36-56.6,58.11-83.45,19.16-24.8,38.22-49.7,59.63-72.65,1.31-1.4,2.63-2.81,3.79-4.33,7.77-10.22,16.81-19.28,25.8-28.39,13.48-13.66,26.99-27.3,40.64-40.79,11.37-11.24,22.61-22.64,35.33-32.42,1.52-1.17,2.9-2.52,4.3-3.83,18.25-17.04,37.81-32.52,57.41-47.96,28.67-22.59,58.59-43.4,89.16-63.3,9.65-6.28,19.51-12.23,29.25-18.37,23.28-14.69,47.22-28.23,71.8-40.6,15.43-7.76,30.91-15.43,46.4-23.07,5.16-2.55,10.39-4.98,15.65-7.29,20.5-9.02,41.14-17.66,61.99-25.86,43.51-17.11,87.9-31.5,133.13-43.32,17.33-4.53,34.8-8.45,52.26-12.45,21.84-5,43.89-8.81,65.96-12.55,7.57-1.28,15.12-2.87,22.75-3.48,15.32-1.22,30.37-4.62,45.74-5.25,12.61-2.49,25.4-2.89,38.19-3.38,1.91-.07,3.87-.17,5.71-.62,2.47-.6,4.85-1.55,7.27-2.35,52.48,0,104.96,0,157.44,0Zm-79.11,2362.12c0-.06,0-.11,0-.17,1.92,0,3.84.02,5.76,0,19.83-.2,39.67-.8,59.5-.48,18.66.3,36.87-4.11,55.44-4.34,3.18-.04,6.37-.58,9.53-1.04,12.65-1.84,25.26-4.15,37.96-5.53,19.76-2.16,39.1-6.6,58.6-10.13,16.98-3.07,33.82-7.13,50.48-11.63,24.7-6.67,49.41-13.35,73.69-21.49,13.96-4.68,27.74-9.81,41.55-14.88,31.86-11.7,63.03-24.98,93.44-40.05,12.04-5.97,24-12.08,36.02-18.09,16.03-8.02,31.7-16.66,47.09-25.86,32.97-19.72,65.13-40.66,95.89-63.67,15.36-11.49,31.11-22.5,45.26-35.55,11.48-8.2,21.35-18.33,32.5-26.93,4.04-3.12,7.7-6.74,11.39-10.28,25.87-24.79,51.21-50.13,75.99-76.01,3.1-3.23,6.2-6.48,9.08-9.9,12.36-14.67,24.66-29.4,36.95-44.13,1.64-1.96,3.17-4.02,4.74-6.04,22.38-28.82,43.56-58.48,63.43-89.09,14.3-22.02,27.66-44.61,39.98-67.75,16.83-31.62,32.94-63.61,46.99-96.63,11.28-26.51,21.39-53.44,30.98-80.59,6.18-17.51,11.4-35.32,16.37-53.19,6.68-24.04,12.68-48.25,17.96-72.65,5.54-25.65,9.65-51.55,13.77-77.44,1.91-11.98,2.6-24.16,4.58-36.16.31-1.89.38-3.82.43-5.74.29-10.89,1.25-21.7,2.91-32.47.78-5.03.83-10.2.95-15.31,1.07-45.42,1.05-90.85-.07-136.27-.14-5.75-.27-11.55-1.13-17.22-1.45-9.51-2.35-19.04-2.73-28.64-.1-2.55-.22-5.14-.68-7.64-2.9-15.74-3.87-31.72-6.47-47.52-3.95-23.99-7.94-47.98-13.33-71.67-9.23-40.56-19.75-80.79-33.49-120.1-4.64-13.28-9.52-26.49-14.48-39.66-8.58-22.76-17.88-45.23-28.45-67.13-11.12-23.04-22.84-45.8-34.39-68.63-2.89-5.71-6.02-11.29-9.22-16.83-15.71-27.14-32.39-53.68-50.14-79.54-16.66-24.28-34.38-47.76-52.73-70.78-7.58-9.51-15.61-18.63-23.31-28.03-5.68-6.94-11.58-13.67-17.77-20.14-25.21-26.36-50.99-52.16-77.35-77.37-4.16-3.98-8.29-8.02-12.72-11.68-17.27-14.24-34.42-28.62-51.9-42.62-23.51-18.84-48.58-35.42-73.11-52.8-2.61-1.85-5.37-3.48-8.09-5.16-16.33-10.07-32.4-20.58-49.27-29.77-16.85-9.18-33.56-18.63-50.46-27.71-8.45-4.54-17.05-8.85-25.84-12.67-17.01-7.41-33.72-15.48-50.88-22.55-16.57-6.82-33.12-13.63-50.07-19.47-27.22-9.37-54.49-18.58-82.29-26.15-20.37-5.54-40.79-10.88-61.49-15.1-22.56-4.6-45.06-9.5-67.94-12.36-12.69-1.58-25.3-3.73-37.96-5.56-2.53-.37-5.09-.57-7.64-.69-9.6-.44-19.13-1.32-28.63-2.86-4.4-.71-8.92-.82-13.39-1-7.03-.29-14.07-.45-21.1-.61-9.6-.22-19.17-.59-28.71-1.86-5.69-.76-11.48-.86-17.23-.96-8.95-.15-17.91-.06-26.87-.06-7.68,0-15.33.42-22.97,1.37-5.7.71-11.47,1-17.21,1.25-7.03.31-14.07.4-21.11.57-9.6.23-19.16.69-28.67,2.3-5.03.85-10.17,1.03-15.27,1.46-4.46.38-9,.27-13.38,1.08-15.11,2.79-30.46,3.67-45.6,6.31-26.47,4.62-52.85,9.64-79.04,15.63-31.83,7.28-63.22,16.15-94.3,26.11-12.18,3.9-24.15,8.44-36.17,12.83-37.89,13.82-75.05,29.4-111.13,47.46-16.59,8.31-32.94,17.05-49.2,26-24.13,13.28-47.44,27.85-70.48,42.88-27.88,18.19-54.62,37.96-80.86,58.44-12.61,9.85-24.87,20.13-36.96,30.58-14.02,12.13-27.58,24.81-41.2,37.39-13.15,12.15-25.45,25.21-38.05,37.95-3.14,3.18-5.98,6.66-8.93,10.03-2.52,2.89-4.85,5.97-7.51,8.73-10.66,11.07-20.64,22.71-30.49,34.5-9.85,11.79-19.53,23.7-28.87,35.88-19.47,25.4-37.62,51.74-55.11,78.54-18.19,27.89-34.86,56.66-50.09,86.27-6.73,13.08-13.19,26.31-19.71,39.5-2.27,4.59-4.47,9.21-6.49,13.91-5.57,12.92-10.93,25.94-16.57,38.83-8.73,19.95-16.22,40.37-23.23,60.96-13,38.17-24.08,76.9-32.98,116.25-4.66,20.6-8.62,41.32-12.27,62.11-1.66,9.45-3.29,18.92-4.43,28.44-1.82,15.23-4.81,30.34-4.98,45.75-.02,1.91-.31,3.84-.69,5.71-2.17,10.72-2.33,21.6-2.68,32.48-.27,8.31-.22,16.68-1.31,24.9-1.52,11.47-1.93,22.94-1.94,34.46,0,11.52-.07,23.03.05,34.55.06,5.75-.03,11.58.81,17.24,1.89,12.71,2.13,25.49,2.41,38.28.24,10.88.62,21.74,2.67,32.48.72,3.75.8,7.63,1.12,11.45.32,3.82.23,7.72.94,11.47,2.83,15.1,3.1,30.56,6.45,45.58,4.11,28.51,9.91,56.69,16.69,84.69,7.22,29.87,15.69,59.37,24.75,88.71,1.7,5.5,3.46,10.99,5.47,16.38,6.73,17.97,13.33,36,20.44,53.82,11.14,27.94,23.37,55.39,36.88,82.29,12.64,25.18,26.5,49.66,40.83,73.89,26.09,44.14,55.62,85.89,87.7,125.87,7.21,8.98,14.81,17.64,22.02,26.6,7.24,8.99,14.96,17.5,22.96,25.79,7.11,7.37,13.97,14.93,20.67,22.69,10.45,12.11,21.77,23.47,33.97,33.82,6.84,5.8,13.41,11.86,19.89,18.05,6.02,5.74,11.77,11.83,18.26,16.99,11.52,9.16,22.51,18.93,33.96,28.19,24.4,19.73,49.87,37.98,75.59,55.9,10.49,7.31,21.64,13.65,32.29,20.74,24.54,16.33,50.56,30.12,76.33,44.3,24.68,13.58,50.65,24.53,76.4,35.91,9.36,4.14,18.79,8.14,28.32,11.87,25.63,10.01,51.62,19.02,77.8,27.49,17.05,5.52,34.29,10.39,51.61,14.93,34.05,8.93,68.47,16.16,103.2,21.91,9.46,1.57,18.92,3.42,28.45,4.28,16.55,1.5,32.9,5.04,49.6,5.04,1.9,0,3.83.34,5.71.72,10.09,2.04,20.33,2.3,30.57,2.43,22.39.28,44.78.53,67.18.8Z"/>
      <path class="cls-1" d="m7441.92,1670.4c-2.46,4.48-4.78,9.04-7.43,13.41-1.71,2.82-4.43,4.61-7.74,5.18-2.51.43-5.07.77-7.61.83-6.4.14-12.8.12-19.2.13-22.4.01-44.79,0-67.19,0-2.56,0-5.12,0-7.68-.04-13.73-.16-16.21-1.2-24.46-11.76-5.51-7.06-11.14-14.03-16.68-21.06-14.67-18.58-29.32-37.17-43.98-55.75-3.96-5.02-7.94-10.03-11.9-15.05-11.11-14.05-22.21-28.11-33.32-42.16-.79-1-1.69-1.93-2.45-2.95-14.97-19.96-30.73-39.31-46.2-58.89-12.3-15.56-24.51-31.19-36.74-46.79-6.16-7.85-5.89-12.35,2.03-19.77,1.86-1.75,3.78-3.46,5.81-5.01,6.63-5.05,12.6-10.86,18.87-16.31,15.45-13.42,30.61-27.18,46.27-40.35.98-.82,2.06-1.54,2.97-2.42,13.8-13.37,29.15-24.97,43.14-38.11.47-.44.91-.9,1.4-1.31,15.27-12.65,29.75-26.21,44.87-39.03,8.29-7.03,16.14-14.56,24.1-21.96.86-.8,1.41-2.17,1.61-3.36.2-1.18.06-2.61-.45-3.68-1.12-2.35-3.15-4.01-5.22-5.52-15-10.92-30.05-21.77-45.03-32.72-4.64-3.4-9.17-6.96-13.64-10.59-3.98-3.22-5.03-7.56-3.4-11.99,2-5.43,4.6-10.54,7.78-15.37,2.21-3.36,5.3-5.53,9.18-6.45,2.48-.59,5.02-1.08,7.56-1.21,5.11-.25,10.23-.28,15.35-.29,40.95-.02,81.91-.02,122.86,0,5.12,0,10.24.02,15.35.28,2.53.13,5.08.65,7.53,1.32,3.23.89,5.65,2.94,6.77,6.2,1.73,5.01,1.59,10.05-.03,15.06-.81,2.49-2.23,4.69-4.13,6.39-10.96,9.81-21.81,19.77-33.09,29.19-7.87,6.57-15.63,13.21-23.11,20.21-2.8,2.62-5.64,5.23-8.68,7.56-6.61,5.07-12.77,10.65-18.89,16.29-2.82,2.6-5.78,5.06-8.72,7.52-1.96,1.64-4.14,3.05-5.98,4.81-13.87,13.28-29.14,24.98-43.2,38.05-.47.44-.92.9-1.41,1.3-15.27,12.66-29.67,26.3-44.94,38.96-2.95,2.45-5.93,4.89-8.73,7.51-6.55,6.12-13.32,11.96-20.36,17.53-4.51,3.57-8.85,7.36-12.2,12.15-1.62,2.32-1.98,6.73-.52,9.12,1,1.63,1.9,3.35,3.09,4.84,16.77,21,33.6,41.94,50.36,62.94,12.78,16,25.45,32.07,38.23,48.06,12.78,15.99,25.65,31.91,38.45,47.89,12,14.98,23.96,29.99,35.92,44.99,1.6,2,3.09,4.09,4.69,6.08,3.65,4.54,7.94,8.33,13.18,10.96,4.57,2.3,9.14,4.61,13.71,6.91,17.73,8.9,35.46,17.79,53.19,26.69v11.52Z"/>
      <path class="cls-8" d="m3399.21,1160.06c24.32,0,48.63-.03,72.95.02,5.75.01,11.52.15,17.25.6,2.48.19,5.01,1.07,7.31,2.1,2.37,1.07,3.97,3.09,4.73,5.7,1.1,3.77,1.1,7.57.51,11.39-.5,3.25-1.93,6.1-4.23,8.43-1.79,1.81-3.7,3.54-5.7,5.12-11.06,8.71-22.16,17.36-33.25,26.03-2.52,1.97-5.09,3.88-7.57,5.9-3.53,2.87-6.34,6.37-8.18,10.52-2.07,4.67-4.1,9.39-5.8,14.21-8.3,23.54-17.11,46.88-25.9,70.23-6.09,16.16-11.81,32.47-17.76,48.68-7.94,21.62-15.97,43.21-23.91,64.83-6.18,16.82-12.24,33.67-18.41,50.49-7.94,21.62-15.97,43.2-23.91,64.82-6.4,17.42-12.72,34.86-19.06,52.29-5.9,16.23-11.74,32.49-17.71,48.7-1.54,4.19-3.36,8.3-5.28,12.34-1.68,3.52-4.26,6.39-7.63,8.42-2.19,1.32-4.42,2.59-6.71,3.73-14.32,7.13-28.64,14.26-43.01,21.28-2.86,1.4-5.92,2.38-8.93,3.43-2.69.94-7-.75-8.39-3.24-1.24-2.23-2.6-4.43-3.48-6.8-2.01-5.39-3.79-10.87-5.62-16.33-21.59-64.3-43.11-128.62-64.78-192.88-7.97-23.64-16.29-47.17-24.5-70.73-.63-1.8-1.58-3.49-2.5-5.17-.66-1.21-1.77-1.83-3.05-1.89-1.3-.06-2.41.52-3.15,1.71-.68,1.08-1.38,2.18-1.82,3.37-4.86,13.21-9.75,26.41-14.49,39.66-10.78,30.12-21.28,60.33-32.37,90.34-.67,1.8-1.3,3.61-1.94,5.42-10.82,30.78-21.59,61.58-32.5,92.34-3.21,9.04-6.76,17.96-10.29,26.88-1.45,3.67-4.01,6.61-7.5,8.46-18.65,9.89-37.52,19.36-56.75,28.09-1.14.52-2.47.62-3.7.93-1.84.47-5.89-1.12-6.76-2.81-1.45-2.84-2.99-5.66-4.11-8.63-4.08-10.77-8.07-21.57-11.99-32.4-7.18-19.85-14.24-39.75-21.44-59.6-7.64-21.05-15.38-42.06-23.09-63.08-.88-2.4-1.86-4.77-2.72-7.18-7.57-21.07-15.06-42.18-22.71-63.22-7.21-19.84-14.6-39.62-21.87-59.44-5.29-14.41-10.56-28.84-15.77-43.28-7.17-19.86-14.28-39.74-21.44-59.6-6.29-17.45-12.61-34.9-18.94-52.34-.87-2.4-1.93-4.74-2.82-7.14-2.76-7.45-7.28-13.36-14.27-17.44-10.49-6.14-20.83-12.54-31.22-18.84-3.83-2.32-7.66-4.64-11.42-7.07-1.6-1.04-3.01-2.37-4.49-3.59-2.23-1.83-3.6-6.19-2.79-8.69,2.17-6.75,5.15-13.09,9.55-18.69,1.62-2.06,3.73-3.58,6.24-4.24,3.08-.8,6.22-1.57,9.38-1.79,5.1-.36,10.23-.33,15.35-.33,39.03-.02,78.07-.02,117.1,0,5.12,0,10.24.06,15.35.27,5.13.21,10.17,1.08,15.11,2.52,3.59,1.04,6.41,4.31,7.04,8.27.51,3.19.49,6.36-.09,9.54-.47,2.59-1.52,4.97-3.29,6.82-2.64,2.77-5.4,5.47-8.41,7.82-7.07,5.5-14.35,10.73-21.47,16.16-2.54,1.93-5.01,3.99-7.26,6.24-2.85,2.85-4.33,6.34-3.37,10.46.58,2.49,1.26,4.96,2.08,7.38,2.86,8.49,5.52,17.06,8.77,25.4,6.28,16.11,11.55,32.56,17.34,48.84,9.65,27.12,19.37,54.22,29.07,81.33,1.08,3.01,2.17,6.02,3.23,9.03,7.2,20.53,14.23,41.11,21.7,61.54,10.99,30.04,21.15,60.38,31.84,90.53,5.34,15.06,11.07,29.99,16.66,44.97.48,1.29,1.62,2.13,2.99,2.16,1.31.03,2.35-.79,3.07-1.94.34-.54.68-1.08.97-1.64.29-.57.56-1.15.77-1.75,7.1-19.88,14.17-39.78,21.3-59.65,10.59-29.5,20.8-59.15,31.77-88.51.67-1.8,1.29-3.62,1.92-5.43,9.8-27.75,19.59-55.5,29.39-83.25,2.13-6.03,4.35-12.03,6.43-18.08,1.06-3.1,1.05-6.31.16-9.45-1.04-3.69-2.11-7.39-3.36-11.01-5.22-15.12-10.53-30.21-15.76-45.32-3.35-9.67-6.59-19.38-9.94-29.06-1.26-3.62-2.63-7.21-4.07-10.77-1.23-3.03-3.3-5.53-5.95-7.37-4.2-2.92-8.49-5.72-12.85-8.39-8.19-5.01-16.47-9.86-24.68-14.83-3.28-1.99-6.52-4.05-9.68-6.23-1.56-1.08-3.07-2.35-4.29-3.8-1.69-2.01-2.53-4.46-1.91-7.13.43-1.86.98-3.73,1.76-5.46,8.01-17.8,11.14-19.87,30.5-20.16,7.04-.11,14.08-.04,21.12-.04,40.95,0,81.91-.02,122.86.01,6.4,0,12.8.07,19.18.39,2.51.12,5.05.8,7.46,1.58,3.2,1.04,5.38,3.28,6.35,6.6,1.09,3.77,1.1,7.57.45,11.39-.55,3.25-1.99,6.11-4.33,8.38-2.29,2.22-4.73,4.3-7.26,6.25-10.14,7.81-20.35,15.52-30.5,23.32-3.04,2.34-6.04,4.74-8.88,7.32-4.11,3.72-5.81,8.36-4.31,13.85,1.01,3.7,2.16,7.37,3.31,11.03,17.18,54.96,35.74,109.48,53.38,164.29,13.92,43.24,27.87,86.47,42.12,129.6,5.42,16.4,10.84,32.81,16.29,49.2.6,1.81,1.35,3.6,2.85,4.87,1.06.9,2.24.72,3.3-.37.44-.46.89-.96,1.14-1.53.77-1.75,1.52-3.52,2.16-5.33,8.79-24.71,17.5-49.46,26.37-74.14,8.66-24.08,17.54-48.08,26.24-72.14,7.4-20.46,14.64-40.97,22.01-61.43,8.9-24.67,17.9-49.31,26.8-73.99,7.38-20.46,14.71-40.94,21.96-61.45,1.06-2.99,1.65-6.16,2.29-9.28.55-2.71-1.53-6.96-3.87-8.25-1.68-.93-3.31-1.99-5.09-2.65-4.79-1.79-9.65-3.41-14.49-5.08-25.4-8.75-50.81-17.5-76.21-26.26-3.02-1.04-6.03-2.06-8.71-3.92-1.62-1.13-3.28-4.88-2.75-6.78.17-.62.24-1.26.45-1.86,1.9-5.47,4.52-10.58,7.68-15.42,2.19-3.36,5.31-5.55,9.21-6.39,3.12-.67,6.28-1.3,9.45-1.49,5.1-.31,10.23-.3,15.35-.31,23.68-.03,47.35-.01,71.03-.01Z"/>
      <path class="cls-10" d="m4309.3,1430.1c0,59.51-.01,119.01.02,178.52,0,7.03-.43,14.09.73,21.07.66,3.99,2.65,7.24,6.2,9.21,2.78,1.54,5.7,2.93,8.7,3.98,10.87,3.81,21.8,7.42,32.69,11.18,4.23,1.46,8.42,3.04,12.59,4.67,1.17.46,2.19,1.3,3.27,1.97,1.72,1.05,3.28,4.84,2.86,6.75-1.54,7.03-4.8,13.2-9.57,18.52-1.21,1.35-3.09,2.28-4.83,2.95-1.76.68-3.72,1.03-5.61,1.11-5.75.24-11.51.37-17.27.38-49.27.03-98.54.03-147.81,0-5.76,0-11.52-.12-17.27-.38-1.88-.09-3.76-.69-5.58-1.26-2.59-.82-4.36-2.75-5.21-5.22-1.51-4.35-1.53-8.83.01-13.18.63-1.77,1.64-3.48,2.79-4.98,2.75-3.58,6.32-6.3,9.84-9.1,13.02-10.35,26.01-20.73,38.99-31.13,1.49-1.2,2.9-2.51,4.24-3.88,1.82-1.86,3.04-4.13,3.56-6.67.38-1.87.66-3.8.7-5.7.14-5.76.2-11.51.19-17.27-.05-115.81-.12-231.63-.19-347.44,0-4.48.01-8.96-.07-13.44-.05-2.56-.23-5.11-.43-7.66-.41-4.99-3.31-8.2-7.68-10.13-2.92-1.29-5.95-2.33-8.98-3.35-10.31-3.47-20.65-6.85-30.95-10.32-4.24-1.43-8.45-2.97-12.63-4.56-1.18-.45-2.22-1.25-3.32-1.9-1.61-.94-3.09-4.88-2.68-6.8,1.51-7.05,4.91-13.15,9.43-18.63,1.64-1.99,3.94-3.25,6.53-3.76,1.88-.37,3.79-.73,5.69-.78,5.76-.15,11.51-.2,17.27-.21,25.59-.05,51.19-.06,76.78-.1,9.6-.02,19.17-.32,28.72-1.64,5.68-.79,11.47-.93,17.22-1.11,10.23-.32,20.47-.46,30.71-.66,9.6-.19,19.17-.58,28.69-2.09,4.41-.7,8.91-1.04,13.37-1.12,15.35-.27,30.72-.83,46.06-.41,28.63.79,55.65,8.07,80.52,22.41,12.23,7.05,23.51,15.57,32.92,26.19,14.67,16.56,24.98,35.55,30.12,57.14,1.63,6.83,2.66,13.82,3.63,20.79.52,3.78.67,7.68.39,11.49-1.33,18.06-5.48,35.41-14.43,51.31-6.61,11.74-14.25,22.78-23.78,32.4-1.8,1.82-3.63,3.61-5.39,5.47-14.66,15.53-32.06,27.42-50.63,37.64-11.77,6.48-23.79,12.5-36.47,17.09-1.8.65-3.51,1.53-4.66,3.15-.81,1.15-.71,2.5.52,3.35,1.56,1.07,3.26,2.02,5.03,2.68,6.59,2.47,13.25,4.73,19.83,7.22,3.67,1.38,6.71,3.8,8.94,7.01,3.28,4.73,6.47,9.53,9.52,14.41,10.85,17.36,21.62,34.77,32.42,52.16,2.7,4.35,5.36,8.72,8.05,13.08,12.08,19.61,24.12,39.24,36.27,58.81,3.71,5.98,7.7,11.78,11.61,17.64,2.17,3.25,5.04,5.8,8.45,7.67,3.92,2.16,7.9,4.23,11.9,6.23,14.87,7.45,29.78,14.83,44.64,22.31,3.42,1.72,6.73,3.68,9.99,5.69,1.05.64,1.91,1.7,2.65,2.72,1.14,1.58,1.78,3.39,1.42,5.39-.22,1.25-.42,2.53-.86,3.72-1.54,4.22-3.6,8.19-6.04,11.97-3,4.64-7.25,7.1-12.73,7.36-4.47.21-8.95.37-13.43.38-12.8.05-25.59.02-38.39.02-13.44,0-26.87,0-40.31,0-3.84,0-7.68,0-11.52-.11-11.52-.32-15.3-2.53-21.7-12.83-14.52-23.36-28.97-46.77-43.5-70.13-13.85-22.28-27.78-44.5-41.63-66.78-15.2-24.45-30.34-48.94-45.5-73.4-1.01-1.63-2.04-3.25-3.06-4.88-3.09-4.92-6.83-9.26-11.49-12.77-5.11-3.86-10.27-7.64-15.28-11.61-1.98-1.57-3.75-3.46-5.39-5.41-1.73-2.06-2.14-4.62-1.66-7.23.83-4.51,2.85-8.47,5.92-11.86,1.75-1.93,3.91-3.34,6.5-3.8,2.51-.45,5.06-.84,7.6-.89,7.68-.15,15.36-.36,23.03-.13,12.94.39,25.48-2.05,37.97-4.86,6.88-1.55,13.44-4.16,19.72-7.41,13.45-6.96,23.89-17.03,31.07-30.39,1.81-3.37,3.36-6.9,4.92-10.4,2.1-4.72,3.31-9.68,3.7-14.83,1.06-14.07.93-28.13-.29-42.18-.55-6.42-2.23-12.63-4.16-18.71-7.32-23.15-19.93-42.81-39.27-57.82-8.72-6.77-18.68-11.23-29.26-13.99-14.27-3.73-28.76-6.32-43.64-5.28-18.79,1.31-36.51,6.22-52.8,15.87-1.09.65-2.09,1.48-3.09,2.27-3.13,2.49-5.1,5.73-5.73,9.66-.4,2.52-.56,5.09-.62,7.64-.11,5.12-.11,10.24-.11,15.36,0,58.87,0,117.73,0,176.6h-.23Z"/>
      <path class="cls-5" d="m5334.94,1160.16c24.95-.38,49.89-.74,74.84-1.14,8.96-.14,17.89-.55,26.78-1.91,5.04-.77,10.18-1.14,15.28-1.29,19.82-.6,39.66-1.05,59.48-.31,19.25.72,38.15,3.73,56.6,9.44,14.71,4.55,28.98,10.1,42.53,17.47,24.43,13.28,45.86,30.35,63.9,51.48,9.15,10.72,16.75,22.6,23.59,34.94,1.86,3.35,3.47,6.85,5.31,10.22,12.09,22.1,19.85,45.74,24.63,70.36,3.29,16.95,6.23,33.97,5.88,51.37-.19,9.59-.13,19.19-.1,28.79.05,16.79-3.15,33.09-7.6,49.15-10.78,38.88-30.13,73.15-56.25,103.74-3.32,3.89-6.68,7.76-9.85,11.77-4.38,5.54-9.06,10.84-14.42,15.38-10.73,9.09-21.21,18.48-32.31,27.15-10.12,7.9-20.97,14.69-32.04,21.08-16.08,9.28-32.64,17.67-50.02,24.28-18.62,7.08-37.98,11.35-57.63,14.32-3.78.57-7.64.88-11.47.89-12.79.06-25.59.03-38.38-.16-4.46-.07-8.97-.4-13.37-1.15-9.5-1.62-19.05-2.2-28.66-2.36-12.15-.19-24.27-.63-36.35-2.41-6.92-1.02-14.03-.94-21.06-.98-22.39-.13-44.78-.09-67.17-.12-5.76,0-11.52,0-17.27-.15-2.54-.07-5.1-.38-7.61-.83-4.19-.76-6.78-3.44-7.81-7.47-1.73-6.73-.18-12.72,4.8-17.59,2.74-2.68,5.75-5.08,8.76-7.46,9.52-7.55,19.17-14.95,28.63-22.57,5.47-4.41,10.75-9.06,15.96-13.79,2.43-2.2,3.58-5.26,4.01-8.51.25-1.9.4-3.82.43-5.74.08-5.12.11-10.23.11-15.35-.06-115.79-.12-231.59-.21-347.38,0-7.03-.13-14.07-.54-21.09-.28-4.9-3.23-8.21-7.62-10.22-1.74-.8-3.53-1.51-5.34-2.14-3.62-1.27-7.26-2.51-10.91-3.67-10.36-3.3-20.74-6.54-31.1-9.83-3.04-.97-6.04-2.04-8.65-3.99-1.69-1.26-3.25-4.83-2.62-6.82.77-2.43,1.42-4.93,2.51-7.22,7.49-15.79,10.69-17.99,27.88-18.19,17.27-.2,34.55-.08,51.82-.09,10.88,0,21.75,0,32.63,0,0,.03,0,.07,0,.1Zm38.12,265.59h-.21c0,56.87,0,113.75,0,170.62,0,6.39,0,12.78.16,19.17.07,2.54.39,5.11.98,7.57.61,2.51,2.06,4.69,4.28,6.14,1.59,1.04,3.29,1.95,5.03,2.71,5.9,2.56,12.17,3.93,18.4,5.29,11.23,2.44,22.42,5.24,33.97,5.77,16.6.76,33.22.98,49.83.36,5.09-.19,10.23-.61,15.23-1.55,29.61-5.61,55.48-18.86,77.97-38.78,4.29-3.8,8.36-7.94,12.04-12.33,20.39-24.4,34.87-51.9,42.43-82.86,4.56-18.66,7.73-37.54,7.37-56.86-.11-5.75-.03-11.5-.07-17.25-.07-9.59-.46-19.15-2.27-28.62-.83-4.38-1.02-8.88-1.55-13.32-.46-3.8-.77-7.64-1.53-11.39-4.35-21.33-10.16-42.24-18.08-62.53-7.74-19.83-18.77-37.79-32.33-54.07-9.41-11.29-20.32-21.13-32.11-30.07-17.15-13-36.34-21.43-57.05-26.21-16.18-3.73-32.67-5.57-49.43-5.31-16.25.25-31.68,3.72-46.68,9.51-6.55,2.53-12.85,5.68-18.75,9.57-4.59,3.02-7.15,7.23-7.31,12.75-.18,6.39-.32,12.78-.32,19.16-.02,57.51-.01,115.03-.01,172.54Z"/>
      <path class="cls-2" d="m3547.31,1441.46c0-6.4,0-12.8,0-19.2-.02-19.38,3.71-38.12,9.22-56.62,10.19-34.24,27.43-64.7,49.47-92.53,7.93-10.01,15.88-20.03,24.87-29.22,11.68-11.94,24.39-22.67,37.68-32.64,28.84-21.64,60.21-38.78,94.28-50.79,11.49-4.05,23.26-7.06,35.3-8.95,1.9-.3,3.83-.38,5.7-.8,15.15-3.37,30.5-3.1,45.87-2.71,1.92.05,3.85.09,5.75.3,22.95,2.6,45.56,6.74,67.26,14.99,10.19,3.88,20.02,8.55,29.47,13.94,16.72,9.55,32.4,20.51,46.05,34.26,10.39,10.47,20.51,21.12,28.84,33.33,9.39,13.76,17.88,28,24.51,43.36,10.47,24.24,17.53,49.41,21.72,75.42.2,1.26.49,2.52.58,3.79,1.06,14.03,2.06,28.06,3.57,42.06.54,5.02-.22,10.21-.64,15.3-.43,5.1-1.5,10.15-1.73,15.25-.52,11.58-2.74,22.91-5.53,34.05-6.73,26.85-16.94,52.33-32.25,75.56-4.58,6.94-9.31,13.79-13.95,20.69-3.93,5.86-8.37,11.3-13.1,16.54-4.71,5.23-9.14,10.7-13.83,15.94-3.84,4.28-7.52,8.81-11.9,12.49-13.21,11.11-25.98,22.78-40.15,32.72-7.34,5.15-14.76,10.16-22.66,14.41-1.69.91-3.44,1.73-5.06,2.76-13.56,8.64-28.4,14.68-43.12,20.91-5.88,2.49-11.94,4.64-18.09,6.37-9.23,2.6-18.58,4.81-27.94,6.93-4.35.99-8.82,1.49-13.26,2-8.26.95-16.53,2.31-24.81,2.42-7.63.1-15.26-1.5-22.92-1.83-10.9-.46-21.63-1.76-32.35-3.81-20.3-3.87-39.37-11.2-57.91-19.96-6.9-3.26-13.29-7.68-19.66-11.96-12.75-8.58-24.95-17.85-35.86-28.79-13.19-13.22-24.43-27.95-33.98-43.91-7.55-12.63-13.91-25.92-19.54-39.55-7.13-17.24-11.77-35.18-15.38-53.4-4.1-20.7-4.1-21.77-4.51-43.82-.09-5.12-.01-10.24-.01-15.36h-.02Zm434.78,1.86c-.15-18.52-.29-36.99-3.69-55.37-3.62-19.53-8.04-38.77-14.6-57.51-8.97-25.66-22.72-48.55-40.51-69.02-3.76-4.33-7.9-8.38-12.21-12.16-13.56-11.87-28.59-21.46-45.27-28.39-12.46-5.18-25.34-9.06-38.75-10.37-17.83-1.75-35.74-1.66-53.61-.22-2.54.21-5.11.53-7.57,1.17-12.39,3.25-24.58,7.03-35.57,13.89-3.25,2.03-6.57,3.95-9.86,5.92-5.51,3.29-10.59,7.16-15.23,11.59-3.7,3.53-7.32,7.14-10.98,10.71-10.6,10.37-18.95,22.38-26.05,35.36-10.52,19.22-17.77,39.62-22.43,60.96-3.41,15.64-5.73,31.42-5.3,47.51.15,5.75,0,11.5,0,17.25,0,15.99.38,31.96,3.8,47.67,2.75,22.35,9.12,43.74,16.99,64.74,5.86,15.62,13.35,30.36,23,44.05,11.16,15.82,25.08,28.91,39.52,41.56.48.42,1,.8,1.53,1.15,12.85,8.41,25.89,16.39,40.76,20.96,16.59,5.09,33.38,8.66,50.82,8.62,6.39-.02,12.78-.07,19.17-.05,9.68.03,19.08-1.62,28.23-4.74,3.63-1.24,7.32-2.33,10.88-3.73,18.04-7.09,34.28-16.99,48.2-30.63,14.28-14,26-29.78,34.95-47.69,8.33-16.68,14.52-34.15,18.52-52.27,3.58-16.22,5.82-32.71,5.27-49.44-.13-3.83-.02-7.67-.02-11.5Z"/>
      <path class="cls-6" d="m6583.39,1160.05c53.1,0,106.19,0,159.29,0,5.12,0,10.24-.08,15.35,0,9.68.15,19.12-1.06,28.3-4.32,3.6-1.28,7.38-2.05,11.11-2.92,4.53-1.07,8.84,2.08,9.67,6.97.32,1.89.71,3.78.8,5.68.18,3.83.24,7.67.24,11.51,0,35.18.02,70.37-.05,105.55,0,5.11-.23,10.23-.72,15.31-.54,5.59-3.79,9.34-8.98,11.41-2.98,1.19-6.03,2.16-9.26,2.33-2.67.15-5.07-.67-6.99-2.52-1.37-1.32-2.7-2.74-3.79-4.3-3.67-5.24-7.26-10.53-10.82-15.85-17.1-25.51-34.15-51.04-51.28-76.52-2.85-4.24-5.88-8.38-9.14-12.31-2.07-2.49-5.04-3.97-8.32-4.36-3.17-.38-6.37-.61-9.56-.64-8.95-.09-17.91-.06-26.87-.07-36.46,0-72.93,0-109.39,0-5.12,0-10.23.06-15.35.22-1.9.06-3.79.47-5.68.78-2.52.41-6.2,3.9-6.65,6.32-.35,1.88-.8,3.77-.91,5.67-.21,3.83-.28,7.67-.28,11.51-.03,53.74-.05,107.47-.05,161.21,0,3.84.08,7.68.35,11.5.13,1.88.56,3.81,1.22,5.57.93,2.47,2.67,4.42,5.3,5.11,2.45.64,5,1.27,7.5,1.28,24.31.11,48.62.09,72.92.09,1.28,0,2.56-.11,3.83-.2,5.41-.37,9.95-2.46,12.92-7.12,3.44-5.39,6.77-10.85,9.97-16.38,9.59-16.62,19.09-33.29,28.63-49.94.95-1.66,1.96-3.3,2.96-4.94,4.21-6.87,10.53-8.86,18.15-7.77,4.78.68,8.43,4.22,8.91,8.68.27,2.54.57,5.09.62,7.64.11,5.76.09,11.51.09,17.27-.02,48.62-.02,97.24-.1,145.85,0,6.39-.2,12.79-.62,19.16-.26,3.98-2.17,7.36-5.44,9.74-5.2,3.79-10.77,6.88-17.18,8.16-2.72.54-5.03-.47-6.97-2.26-.92-.85-1.71-1.93-2.3-3.04-1.49-2.82-2.98-5.66-4.21-8.6-7.41-17.7-14.71-35.44-22.14-53.14-2.97-7.08-6.22-14.03-9.25-21.08-2.88-6.71-8.07-9.55-15.16-9.41-.64.01-1.28-.07-1.92-.07-23.67,0-47.34-.04-71.01.04-3.16.01-6.34.59-9.49,1.07-2.61.4-6.02,3.92-6.48,6.48-.34,1.88-.8,3.77-.88,5.67-.19,5.11-.28,10.23-.28,15.35-.04,53.74-.06,107.47-.05,161.21,0,5.11.11,10.23.34,15.34.09,1.89.5,3.81,1.09,5.61,1.05,3.23,3.38,5.4,6.56,6.45,1.8.59,3.74.92,5.64,1.01,4.47.22,8.95.32,13.42.33,42.86.02,85.72.04,128.58-.02,5.74,0,11.5-.3,17.23-.76,3.99-.32,7.26-2.45,9.79-5.49,2.04-2.46,3.9-5.07,5.7-7.71,21.2-31.22,42.37-62.47,63.55-93.7,3.23-4.76,6.42-9.56,9.74-14.26,1.09-1.55,2.45-2.95,3.85-4.24,1.43-1.32,3.21-2.05,5.22-2.08,5.35-.06,10.08,1.72,13.99,5.29,1.35,1.23,2.32,3.06,2.97,4.81.65,1.76.87,3.75.95,5.65.2,5.11.29,10.23.29,15.35,0,39.02-.02,78.05-.08,117.07,0,5.75.25,11.5-.72,17.23-.64,3.77-4.59,6.7-8.41,5.95-1.25-.25-2.54-.39-3.76-.73-2.46-.69-4.89-1.49-7.33-2.26-3.05-.96-6.11-1.9-9.14-2.91-4.9-1.63-9.94-2.42-15.09-2.47-7.04-.07-14.07-.13-21.11-.13-112.59,0-225.18,0-337.77,0-6.4,0-12.8,0-19.19-.13-2.55-.05-5.09-.43-7.63-.75-3.63-.46-7.05-3.9-7.77-7.54-.63-3.18-.67-6.33-.09-9.52.47-2.57,1.52-4.88,3.12-6.91,3.6-4.55,8.07-8.19,12.6-11.75,10.06-7.9,20.15-15.76,30.21-23.66,3.02-2.37,6.05-4.73,8.95-7.25,3.55-3.08,5.47-7.07,5.66-11.76.23-5.75.38-11.51.39-17.26.02-34.54,0-69.09-.02-103.63-.03-80.6-.07-161.21-.11-241.81,0-6.4.01-12.8-.12-19.19-.05-2.54-.36-5.1-.76-7.62-.53-3.33-2.35-5.95-5.24-7.63-2.2-1.28-4.52-2.43-6.91-3.26-10.88-3.77-21.81-7.39-32.71-11.11-4.84-1.65-9.68-3.33-14.46-5.13-4.66-1.75-6.82-6.54-5.1-10.81,2.15-5.36,4.58-10.57,7.95-15.27,1.92-2.67,4.52-4.49,7.71-5.37,5.58-1.55,11.28-2.28,17.06-2.39,5.76-.1,11.51-.13,17.27-.13,54.38,0,108.75,0,163.13,0Z"/>
      <path class="cls-11" d="m6098.66,1416.99c0,63.34,0,126.69,0,190.03,0,5.76.05,11.52.18,17.27.05,1.91.33,3.83.71,5.7.67,3.28,2.45,6.05,5.35,7.6,3.37,1.79,6.97,3.22,10.58,4.47,12.09,4.19,24.24,8.22,36.35,12.33,3.64,1.23,7.19,2.62,10.43,4.78,2.41,1.61,4.11,5.65,3.38,8.37-1.68,6.27-4.54,11.94-8.59,16.99-2.08,2.59-4.9,4.06-8.16,4.58-1.89.31-3.8.58-5.71.63-4.48.14-8.96.18-13.43.18-49.91.01-99.82.02-149.72,0-5.12,0-10.24-.09-15.35-.3-1.89-.08-3.81-.47-5.65-.95-3.3-.86-5.77-2.89-6.63-6.23-.63-2.44-.83-5.03-.91-7.57-.15-4.7,1.46-8.89,4.91-12.07,4.7-4.33,9.54-8.53,14.53-12.53,8.98-7.21,18.1-14.23,27.16-21.33,1.01-.79,2.01-1.59,2.98-2.42,10.37-8.89,11.56-12,11.79-24.73.08-4.48.06-8.96.05-13.44-.06-120.93-.13-241.86-.2-362.79,0-5.76-.06-11.52-.2-17.27-.05-1.91-.42-3.81-.68-5.71-.34-2.49-3.89-6.14-6.36-6.59-1.26-.23-2.51-.67-3.76-.67-18.55-.06-37.1-.07-55.65-.08-.64,0-1.27.13-1.91.18-4.7.37-8.66,2.26-11.59,5.97-2.38,3.01-4.57,6.16-6.79,9.29-20.71,29.24-40.35,59.21-60.39,88.92-3.58,5.3-7.12,10.64-10.82,15.86-1.47,2.07-3.19,4.02-5.03,5.77-2.41,2.28-5.39,3.34-8.77,3.08-3.92-.3-7.51-1.62-10.7-3.85-2.12-1.48-3.67-3.54-4.31-6.13-.31-1.24-.67-2.49-.74-3.75-.22-3.83-.43-7.67-.44-11.5-.05-41.59-.07-83.18-.07-124.77,0-3.84.1-7.68.39-11.5.14-1.88.78-3.74,1.27-5.58.47-1.77,3.96-4.25,5.9-4.25,1.27,0,2.6-.17,3.81.13,4.34,1.06,8.71,2.09,12.95,3.49,7.38,2.44,14.94,3.42,22.67,3.41,5.12,0,10.24.04,15.36.04,113.89,0,227.78,0,341.68,0,5.76,0,11.52-.03,17.27-.1,6.44-.08,12.73-1.05,18.88-3,4.27-1.35,8.56-2.66,12.9-3.73,1.82-.45,3.85-.51,5.69-.2,1.84.31,3.72,1.15,4.55,3.1.74,1.74,1.67,3.53,1.84,5.36.42,4.45.62,8.93.62,13.4.03,40.95,0,81.9-.04,122.85,0,5.11.24,10.25-.92,15.29-.75,3.25-2.54,5.87-5.42,7.56-3.34,1.96-6.97,3.26-10.83,3.68-3.32.37-6.34-.62-8.75-3-1.36-1.34-2.7-2.75-3.8-4.3-3.33-4.69-6.59-9.44-9.8-14.22-17.84-26.55-35.61-53.16-53.53-79.66-5.01-7.41-10.39-14.59-15.7-21.79-2.83-3.84-6.87-5.59-11.56-5.94-1.28-.1-2.55-.17-3.83-.22-1.28-.05-2.56-.08-3.84-.08-15.36,0-30.71-.02-46.07.02-2.55,0-5.11.26-7.65.45-5.93.45-8.35,4.5-8.96,8.44-.39,2.52-.54,5.09-.59,7.64-.1,5.76-.09,11.52-.09,17.27,0,62.7,0,125.41,0,188.11h-.23Z"/>
      <path class="cls-7" d="m4810.17,1160.06c22.4,0,44.8,0,67.2,0,7.04,0,14.09-.05,21.04,1.36,2.5.51,5,1.11,7.38,2,2.45.92,4.29,2.64,5.18,5.26,1.49,4.39,1.42,8.81.35,13.23-.62,2.53-1.9,4.8-3.78,6.57-3.25,3.06-6.56,6.1-10.06,8.86-12.06,9.5-24.23,18.87-36.34,28.32-2.01,1.57-3.99,3.21-5.8,5.01-2.31,2.29-3.91,5.07-4.33,8.36-.32,2.53-.58,5.09-.66,7.64-.13,4.48-.11,8.96-.12,13.44-.06,121.59-.12,243.18-.16,364.78,0,5.76.1,11.52.32,17.27.07,1.89.5,3.8,1.06,5.62,1.01,3.28,3.4,5.37,6.61,6.37,1.81.56,3.76.87,5.66.95,4.47.21,8.95.29,13.43.3,40.32.02,80.63.02,120.95,0,5.75,0,11.52.26,17.22-.86,3.25-.64,6.14-2.06,8.22-4.58,2.85-3.44,5.54-7.03,8.04-10.74,14.67-21.76,29.26-43.56,43.86-65.36,10.68-15.95,21.28-31.96,32.56-47.5,1.13-1.55,2.19-3.15,3.32-4.71,5.89-8.12,9.69-9.15,19.79-5.28,1.19.45,2.35,1.02,3.44,1.67,2.89,1.71,4.69,4.31,5.55,7.5.5,1.84.87,3.76.97,5.66.23,4.47.35,8.95.35,13.43.01,42.88.01,85.75-.04,128.63,0,5.11-.19,10.24-.52,15.34-.12,1.88-.84,3.73-1.4,5.56-.83,2.7-4.84,5.22-7.57,4.7-3.13-.6-6.31-1.13-9.33-2.1-21.74-6.99-16.96-6.78-45.15-6.79-113.91-.02-227.82,0-341.74-.01-7.04,0-14.08,0-21.11-.21-2.52-.08-5.05-.67-7.52-1.26-2.68-.64-4.55-2.59-5.39-5.03-2.45-7.15-1.64-13.92,3.56-19.69,2.13-2.36,4.58-4.48,7.08-6.45,12.05-9.52,24.18-18.93,36.26-28.41,2.51-1.97,5.07-3.92,7.39-6.11,2.86-2.7,4.7-6.06,5.17-10.03.3-2.54.56-5.09.61-7.64.11-5.12.09-10.24.09-15.36-.03-114.55-.07-229.1-.11-343.66,0-5.76.02-11.52-.14-17.28-.07-2.54-.4-5.1-.86-7.61-.6-3.29-2.39-5.95-5.26-7.66-2.18-1.3-4.5-2.47-6.89-3.3-12.1-4.17-24.26-8.16-36.36-12.33-4.22-1.45-8.36-3.17-12.48-4.88-2.7-1.12-4.54-5.42-3.72-8.07,1.91-6.17,4.79-11.85,8.6-17.04,1.94-2.65,4.61-4.41,7.85-5.14,8.78-1.99,17.68-2.75,26.68-2.73,17.28.04,34.56,0,51.84,0,6.4,0,12.8,0,19.2,0h0Z"/>
      <path class="cls-4" d="m7022.21,1689.95c-24.29,0-48.59.02-72.88-.01-5.75,0-11.51-.1-17.25-.32-1.89-.07-3.79-.52-5.63-1.01-3.33-.89-5.49-3.11-6.5-6.38-1.15-3.75-1.1-7.58-.38-11.38.48-2.54,1.49-4.99,3.4-6.75,5.18-4.75,10.35-9.52,15.8-13.94,8.93-7.25,18.08-14.23,27.13-21.33,1.51-1.18,2.93-2.48,4.43-3.67,6.99-5.51,10.59-12.55,10.21-21.6-.21-5.1.04-10.23.04-15.34-.06-115.08-.11-230.15-.21-345.23,0-7.02-.24-14.05-.7-21.06-.22-3.31-2.15-6.07-5.1-7.67-2.79-1.51-5.75-2.8-8.75-3.83-12.7-4.35-25.46-8.51-38.15-12.89-3.61-1.24-7.08-2.89-10.55-4.49-2.62-1.21-4.23-5.43-3.39-8.23,2.04-6.81,5.19-13.04,9.56-18.64,1.62-2.08,3.83-3.44,6.28-4.2,2.43-.75,4.97-1.31,7.49-1.5,4.46-.33,8.94-.4,13.41-.41,51.14-.02,102.29-.03,153.43,0,4.47,0,8.96.09,13.4.5,2.5.23,5.04.95,7.38,1.88,2.42.97,4.29,2.9,4.94,5.5.62,2.45,1.03,5,1.12,7.53.2,5.39-1.59,10.12-5.81,13.61-6.9,5.7-13.87,11.31-20.9,16.85-5.52,4.35-11.25,8.45-16.75,12.82-4.5,3.58-8.86,7.33-13.16,11.15-4.49,3.99-7.07,9-7.3,15.1-.09,2.55-.22,5.11-.25,7.67-.05,4.47-.04,8.95-.05,13.43-.07,113.16-.15,226.32-.19,339.47,0,7.66-.41,15.34.6,22.98.64,4.84,3.22,8.31,7.69,10.18,4.12,1.72,8.34,3.24,12.56,4.69,10.88,3.74,21.81,7.35,32.68,11.13,3.01,1.05,5.91,2.42,8.79,3.78,3.52,1.66,5.55,6.21,4.53,9.61-1.85,6.19-4.6,11.91-8.78,16.88-1.69,2.01-3.9,3.32-6.41,3.98-1.84.48-3.77.79-5.67.85-5.75.18-11.5.27-17.26.28-24.29.03-48.59.01-72.88.01Z"/>
      <path class="cls-3" d="m287.64,918.94c0-5.12-.05-10.24.02-15.35.05-3.2.11-6.41.47-9.58,4.08-35.91,13.08-70.4,30.01-102.54,11.74-22.29,26.92-41.97,45.63-58.85,8.09-7.29,16.86-13.73,26.08-19.54,11.39-7.18,23.22-13.48,35.87-18.22,9.58-3.59,19.01-7.61,28.62-11.13,21.08-7.73,42.78-12.95,64.94-16.7,20.99-3.56,42.03-3.4,63.15-3.02,2.55.05,5.13.16,7.65.55,8.85,1.34,17.81,2.28,26.5,4.34,23.79,5.62,46.49,14.11,67.27,27.3,19.52,12.39,37.61,26.46,54.04,42.81,26.91,26.79,49.75,56.71,69.8,88.83,26.11,41.84,49.34,85.29,70.28,129.91,12.51,26.64,25.75,52.93,37.98,79.69,12.5,27.36,26.2,54.14,38.78,81.44,10.44,22.67,21.24,45.15,32.18,67.58,1.68,3.44,3.31,6.89,5.81,9.88,1.52,1.81,5.4,1.94,6.82-.03,1.49-2.06,3.09-4.07,4.41-6.24,10.64-17.49,21.21-35.02,31.83-52.52,16.93-27.89,33.86-55.78,50.83-83.65,8.32-13.66,16.71-27.28,25.11-40.89,6.4-10.37,13.58-20.21,22.08-28.94,22.81-23.43,49.88-39.74,81.64-48.05,10.55-2.76,21.23-4.92,32.02-6.13,14.64-1.65,29.39-1.77,44,.69,8.19,1.38,16.38,2.81,24.49,4.73,25.31,6,48.07,17.25,68.87,32.68,4.11,3.05,8.24,6.11,12.06,9.5,4.3,3.81,8.62,7.7,12.3,12.09,6.98,8.33,13.61,16.95,19.1,26.4,11.88,20.47,23.92,40.86,35.94,61.25,19.5,33.07,39.09,66.07,58.54,99.17,17.83,30.33,35.63,60.69,53.25,91.14,11.56,19.99,24.76,38.82,38.76,57.14,8.56,11.21,17.71,21.87,27.68,31.84,8.15,8.14,16.31,16.26,24.5,24.36,6.39,6.33,13.53,11.71,20.97,16.74,21.41,14.45,44.65,24.91,69.45,31.94,6.14,1.74,12.44,3,18.72,4.19,12.57,2.39,25.29,3.92,38.01,5.1,10.19.94,20.45.62,30.62-1.11,3.78-.64,7.59-1.25,11.41-1.49,18.04-1.15,35.4-5.73,52.35-11.47,31.66-10.71,61.62-25.09,88.95-44.51,15.66-11.13,30.53-23.27,43.7-37.34,8.32-8.89,15.85-18.44,23.18-28.13,22.01-29.08,43.91-58.24,65.61-87.55,11.04-14.91,21.64-30.14,32.27-45.35,9.53-13.63,19.21-27.16,27.95-41.32,1.32-2.14,2.6-4.44,4.87-5.79.41-.25,1.26-.2,1.66.08.42.3.84,1.09.74,1.55-.42,1.85-.83,3.76-1.61,5.47-9.85,21.52-19.83,42.99-29.72,64.49-12.29,26.74-25.52,53.04-37.16,80.08-1.77,4.11-3.75,8.13-5.69,12.17-7.47,15.58-15.2,31.02-21.89,46.97-2.72,6.48-5.98,12.74-9.04,19.08-5.84,12.1-11.8,24.14-16.96,36.56-2.2,5.31-4.86,10.44-7.33,15.64-6.87,14.44-14.1,28.71-20.22,43.51-2.2,5.31-4.94,10.4-7.36,15.62-4.84,10.45-9.53,20.97-14.45,31.37-6.29,13.3-12.59,26.6-19.15,39.77-22.54,45.24-45.19,90.43-67.82,135.63-6.02,12.02-12.03,24.03-17.04,36.52-2.14,5.34-4.83,10.45-7.2,15.7-3.69,8.16-7.6,16.23-10.94,24.53-6.99,17.36-16.84,33.02-27.96,47.95-1.53,2.05-3.17,4.02-4.87,5.93-14.43,16.31-29.42,32.13-46.08,46.13-24.6,20.69-51.28,38.19-81.46,49.92-11.34,4.41-22.66,8.76-34.54,11.55-22.55,5.29-45.32,8.12-68.5,6.87-3.83-.21-7.68-.44-11.45-1.11-15.12-2.68-30.19-5.63-44.88-10.25-7.32-2.3-14.73-4.34-22-6.81-23.23-7.89-44.28-19.83-64.14-34.14-16.19-11.66-30.9-24.97-43.94-39.94-12.17-13.96-24.14-28.12-34.52-43.6-20.34-30.32-39.4-61.37-56.26-93.75-2.36-4.54-4.92-8.97-7.4-13.45-3.09-5.6-6.39-11.1-9.23-16.83-8.81-17.78-18.65-35.01-28.45-52.25-6.32-11.12-13.25-21.89-20.02-32.74-3.05-4.9-6.67-9.38-10.89-13.36-3.78-3.57-8.05-6.32-12.97-7.99-5.02-1.71-10.05-1.65-15.04.18-3.64,1.33-6.96,3.2-9.94,5.69-5.46,4.56-10.02,9.87-13.51,16.07-1.26,2.23-2.47,4.49-3.6,6.78-22.71,45.87-45.47,91.72-68.05,137.66-5.92,12.05-11.27,24.39-16.86,36.6-6.69,14.59-14.9,28.28-24.16,41.38-3.7,5.24-7.63,10.26-11.97,14.98-10.84,11.78-22.09,23.14-33.82,34.03-10.35,9.61-21.65,17.98-33.72,25.29-7.11,4.31-14.23,8.63-21.57,12.52-25.08,13.27-51.84,21.78-79.58,27.39-3.14.63-6.32,1.03-9.44,1.73-6.91,1.54-13.91,2.04-20.97,2.03-14.08-.02-28.16-.2-42.23.06-15.53.29-30.61-2.44-45.44-6.49-17.92-4.89-35.35-11.18-51.96-19.68-13.68-7.01-27.25-14.13-39.86-23-6.81-4.79-13.54-9.63-19.72-15.24-3.79-3.43-7.91-6.49-11.78-9.84-3.39-2.92-6.98-5.71-9.87-9.09-10.4-12.13-21.19-23.93-30.54-36.96-16.9-23.52-30.04-49.06-41.7-75.46-2.84-6.44-5.64-12.9-8.65-19.25-7.68-16.18-15.81-32.15-22.67-48.72-2.2-5.31-4.99-10.38-7.41-15.6-4.57-9.87-9.05-19.78-13.59-29.66-2.41-5.23-4.82-10.46-7.31-15.65-7.19-15-14.61-29.88-21.06-45.23-3.22-7.66-7.09-15.05-10.7-22.54-5.27-10.95-10.67-21.84-15.25-33.12-1.93-4.73-4.27-9.3-6.49-13.91-5.82-12.11-11.73-24.17-16.91-36.58-2.71-6.49-5.99-12.73-9.01-19.09-6.04-12.71-12.4-25.27-17.73-38.32-2.18-5.32-4.84-10.45-7.33-15.64-6.92-14.42-14.09-28.72-20.23-43.51-2.2-5.31-4.94-10.4-7.36-15.63-4.84-10.45-9.62-20.92-14.42-31.39-.8-1.74-1.55-3.51-2.37-5.25-13.07-27.79-26.12-55.58-39.22-83.35-9.28-19.67-18.03-39.58-26.83-59.48-7.76-17.56-15.09-35.3-21.97-53.22-10.33-26.91-19.17-54.29-25.33-82.48-2.6-11.87-5.26-23.74-6.24-35.9-.1-1.27-.2-2.56-.47-3.81-2.96-13.88-2.9-27.97-2.75-42.05Z"/>
      <path class="cls-12" d="m1828.34,859.9c10.87,0,21.76-.26,32.62.06,21.31.62,41.86,5.1,61.58,13.19,16.88,6.93,30.95,17.94,43.1,31.34,6.43,7.09,12.35,14.7,18.04,22.41,10.32,13.98,18.13,29.39,24.41,45.54,3.94,10.13,7.1,20.54,9.39,31.21,1.48,6.89,2.68,13.79,3.19,20.84.6,8.28,2.12,16.54,2.15,24.82.03,7.63-1.67,15.25-2.1,22.9-.54,9.66-2.55,19.03-4.96,28.3-7.18,27.55-18.95,52.93-36.48,75.5-3.92,5.05-7.81,10.14-12.02,14.95-15.5,17.75-34.75,30.05-56.72,38.16-16.24,5.99-32.88,10.58-50.23,12.07-.64.05-1.28.09-1.91.21-22.18,4.24-44.6,3.08-66.97,3.03-9.68-.02-19.08-2.15-28.43-4.16-16.97-3.65-32.98-9.85-48.15-18.51-14.05-8.01-26.5-17.81-37.7-29.36-2.23-2.3-4.46-4.58-6.76-6.81-12.06-11.71-21.24-25.58-29.5-40.04-3.78-6.63-6.46-13.9-9.46-20.96-7.05-16.58-11.46-33.91-14.11-51.69-.56-3.79-.8-7.64-.93-11.46-.2-5.75-.1-11.51-.25-17.27-.65-24.03,4.36-47.04,12.68-69.41,2.67-7.19,5.46-14.39,8.89-21.23,15.59-31.14,37.58-56.08,69.22-71.96,17.93-8.99,36.64-15.01,56.41-17.98q24.55-3.69,49.65-3.76c5.12-.01,10.23,0,15.35,0v.11Z"/>
    </g>
  </g>
</svg>